<?xml version="1.0" encoding="utf-8"?>
<!-- Generator: Adobe Illustrator 19.0.0, SVG Export Plug-In . SVG Version: 6.00 Build 0)  -->
<svg version="1.1" id="Layer_2" xmlns="http://www.w3.org/2000/svg" xmlns:xlink="http://www.w3.org/1999/xlink" x="0px" y="0px"
	 viewBox="0 0 1307.4 461.3" style="enable-background:new 0 0 1307.4 461.3;" xml:space="preserve">
<style type="text/css">
	.st0{fill:#4D911E;}
	.st1{fill:#848484;}
</style>
<g>
	<g>
		<path class="st0" d="M470.3,31.9h-41.7V10.5h106.8v21.4h-41.7v110.2h-23.3V31.9z"/>
	</g>
	<g>
		<path class="st0" d="M556,10.5h58.7c16.5,0,29.5,4.9,38,13.2c7,7.1,10.9,16.9,10.9,28.4v0.4c0,21.6-13,34.6-31.4,39.9l35.5,49.8
			h-27.3l-32.3-45.9h-29v45.9H556V10.5z M613,75.7c16.5,0,27.1-8.6,27.1-22v-0.4c0-14.1-10.2-21.8-27.3-21.8h-33.7v44.2H613z"/>
	</g>
	<g>
		<path class="st0" d="M734.8,9.5h21.4l57.9,132.5h-24.4l-13.3-31.8h-62.2l-13.5,31.8h-23.7L734.8,9.5z M767.9,89.8l-22.7-52.6
			l-22.6,52.6H767.9z"/>
	</g>
	<g>
		<path class="st0" d="M833,10.5H882c41.4,0,69.9,28.4,69.9,65.4v0.4c0,37-28.6,65.8-69.9,65.8H833V10.5z M882,121
			c27.6,0,45.7-18.6,45.7-44.4v-0.4c0-25.8-18-44.7-45.7-44.7h-25.9V121H882z"/>
	</g>
	<g>
		<path class="st0" d="M976.2,10.5h97.6v20.7h-74.4v34.2h66V86h-66v35.3h75.4v20.7h-98.5V10.5z"/>
	</g>
</g>
<g>
	<g>
		<path class="st1" d="M0,273.8v-0.5c0-51.7,38.7-94.1,93.9-94.1c33.5,0,53.8,11.7,71.2,28.3l-20.5,23.7
			c-14.6-13.5-30.2-22.6-51-22.6c-34.8,0-60.1,28.6-60.1,64.2v0.5c0,35.6,25.2,64.7,60.1,64.7c22.4,0,36.7-9.1,52.3-23.7l20.5,20.8
			c-19,19.8-39.8,32.2-73.8,32.2C39.5,367.4,0,326.1,0,273.8z"/>
	</g>
	<g>
		<path class="st1" d="M460.8,181h29.6l80.1,183.3h-33.8l-18.5-43.9h-86.1l-18.7,43.9h-32.8L460.8,181z M506.6,292l-31.5-72.8
			L443.9,292H506.6z"/>
	</g>
	<g>
		<path class="st1" d="M598.9,182.3h29.6L726,308.1V182.3h31.5v182h-26.8L630.3,234.8v129.5h-31.5V182.3z"/>
	</g>
	<g>
		<path class="st1" d="M801.4,182.3H831l97.5,125.8V182.3H960v182h-26.8L832.9,234.8v129.5h-31.5V182.3z"/>
	</g>
	<g>
		<path class="st1" d="M1003.9,182.3h134.9v28.6h-103v47.3h91.3v28.6h-91.3v48.9h104.3v28.6h-136.2V182.3z"/>
	</g>
	<g>
		<path class="st1" d="M1175.3,182.3h32v152.9h95.7v29.1h-127.7V182.3z"/>
	</g>
</g>
<g>
	<g>
		<path class="st0" d="M17.4,431.8v-0.2c0-16.9,12.7-30.8,30.7-30.8c11,0,17.6,3.8,23.3,9.3l-6.7,7.7c-4.8-4.4-9.9-7.4-16.7-7.4
			c-11.4,0-19.6,9.4-19.6,21v0.2c0,11.6,8.2,21.2,19.6,21.2c7.3,0,12-3,17.1-7.7l6.7,6.8c-6.2,6.5-13,10.5-24.1,10.5
			C30.3,462.4,17.4,448.8,17.4,431.8z"/>
	</g>
	<g>
		<path class="st0" d="M99.2,401.8h10.5v24.7H138v-24.7h10.5v59.5H138v-25.1h-28.4v25.1H99.2V401.8z"/>
	</g>
	<g>
		<path class="st0" d="M201.3,401.4h9.7l26.2,59.9h-11.1l-6-14.4h-28.1l-6.1,14.4h-10.7L201.3,401.4z M216.2,437.7l-10.3-23.8
			l-10.2,23.8H216.2z"/>
	</g>
	<g>
		<path class="st0" d="M263.7,401.8h9.7l31.9,41.1v-41.1h10.3v59.5h-8.8L274,419v42.3h-10.3V401.8z"/>
	</g>
	<g>
		<path class="st0" d="M347.3,401.8h9.7l31.9,41.1v-41.1h10.3v59.5h-8.8L357.6,419v42.3h-10.3V401.8z"/>
	</g>
	<g>
		<path class="st0" d="M430.8,401.8H475v9.4h-33.7v15.5h29.8v9.4h-29.8v16h34.1v9.4h-44.5V401.8z"/>
	</g>
	<g>
		<path class="st0" d="M504.2,401.8h10.5v50h31.3v9.5h-41.7V401.8z"/>
	</g>
	<g>
		<path class="st0" d="M629.7,411.5h-18.9v-9.7h48.3v9.7h-18.9v49.8h-10.5V411.5z"/>
	</g>
	<g>
		<path class="st0" d="M680.7,431.8v-0.2c0-16.7,12.9-30.8,31.2-30.8c18.3,0,31,13.9,31,30.6v0.2c0,16.7-12.9,30.8-31.2,30.8
			C693.5,462.4,680.7,448.5,680.7,431.8z M732,431.8v-0.2c0-11.6-8.4-21.2-20.2-21.2c-11.8,0-20.1,9.4-20.1,21v0.2
			c0,11.6,8.4,21.2,20.2,21.2C723.7,452.8,732,443.3,732,431.8z"/>
	</g>
	<g>
		<path class="st0" d="M809.9,452.7l6.3-7.5c5.7,4.9,11.4,7.7,18.8,7.7c6.5,0,10.5-3,10.5-7.5v-0.2c0-4.3-2.4-6.5-13.4-9.1
			c-12.7-3.1-19.8-6.8-19.8-17.8v-0.2c0-10.2,8.5-17.3,20.3-17.3c8.7,0,15.6,2.6,21.6,7.5l-5.6,7.9c-5.4-4-10.7-6.1-16.2-6.1
			c-6.1,0-9.7,3.1-9.7,7.1v0.2c0,4.6,2.7,6.6,14.1,9.4c12.6,3.1,19.1,7.6,19.1,17.4v0.2c0,11.1-8.8,17.8-21.3,17.8
			C825.7,462.2,817.1,459,809.9,452.7z"/>
	</g>
	<g>
		<path class="st0" d="M883.8,436.1v-34.3h10.5v33.8c0,11.1,5.7,17,15,17c9.3,0,15-5.6,15-16.6v-34.3h10.5v33.7
			c0,17.8-10,26.7-25.6,26.7C893.7,462.3,883.8,453.4,883.8,436.1z"/>
	</g>
	<g>
		<path class="st0" d="M962.8,431.8v-0.2c0-16.9,12.7-30.8,30.7-30.8c11,0,17.6,3.8,23.3,9.3l-6.7,7.7c-4.8-4.4-9.9-7.4-16.7-7.4
			c-11.4,0-19.6,9.4-19.6,21v0.2c0,11.6,8.2,21.2,19.6,21.2c7.3,0,12-3,17.1-7.7l6.7,6.8c-6.2,6.5-13,10.5-24.1,10.5
			C975.8,462.4,962.8,448.8,962.8,431.8z"/>
	</g>
	<g>
		<path class="st0" d="M1040.3,431.8v-0.2c0-16.9,12.7-30.8,30.7-30.8c11,0,17.6,3.8,23.3,9.3l-6.7,7.7c-4.8-4.4-9.9-7.4-16.7-7.4
			c-11.4,0-19.6,9.4-19.6,21v0.2c0,11.6,8.2,21.2,19.6,21.2c7.3,0,12-3,17.1-7.7l6.7,6.8c-6.2,6.5-13,10.5-24.1,10.5
			C1053.2,462.4,1040.3,448.8,1040.3,431.8z"/>
	</g>
	<g>
		<path class="st0" d="M1122.1,401.8h44.1v9.4h-33.7v15.5h29.8v9.4h-29.8v16h34.1v9.4h-44.5V401.8z"/>
	</g>
	<g>
		<path class="st0" d="M1191.4,452.7l6.3-7.5c5.7,4.9,11.4,7.7,18.8,7.7c6.5,0,10.5-3,10.5-7.5v-0.2c0-4.3-2.4-6.5-13.4-9.1
			c-12.7-3.1-19.8-6.8-19.8-17.8v-0.2c0-10.2,8.5-17.3,20.3-17.3c8.7,0,15.6,2.6,21.6,7.5l-5.6,7.9c-5.4-4-10.7-6.1-16.2-6.1
			c-6.1,0-9.7,3.1-9.7,7.1v0.2c0,4.6,2.7,6.6,14.1,9.4c12.6,3.1,19.1,7.6,19.1,17.4v0.2c0,11.1-8.8,17.8-21.3,17.8
			C1207.1,462.2,1198.6,459,1191.4,452.7z"/>
	</g>
	<g>
		<path class="st0" d="M1261.4,452.7l6.3-7.5c5.7,4.9,11.4,7.7,18.8,7.7c6.5,0,10.5-3,10.5-7.5v-0.2c0-4.3-2.4-6.5-13.4-9.1
			c-12.7-3.1-19.8-6.8-19.8-17.8v-0.2c0-10.2,8.5-17.3,20.3-17.3c8.7,0,15.6,2.6,21.6,7.5l-5.6,7.9c-5.4-4-10.7-6.1-16.2-6.1
			c-6.1,0-9.7,3.1-9.7,7.1v0.2c0,4.6,2.7,6.6,14.1,9.4c12.6,3.1,19.1,7.6,19.1,17.4v0.2c0,11.1-8.8,17.8-21.3,17.8
			C1277.1,462.2,1268.5,459,1261.4,452.7z"/>
	</g>
</g>
<path class="st0" d="M342.5,0h-23.9c5,16.6,9.6,34.4,13.4,53.1h-63.8C265,34.5,261.1,16.7,256.8,0h-19.1
	c26.8,104.2,12.3,247.9-76.4,367.8h48.9c28.3-39.4,45.9-81.3,55.8-123.5h78.6c-3.6,43.3-12.1,85.5-27,123.5h43.9
	C395,242.6,375.3,103.1,342.5,0z M333.5,60.1c4.6,23.2,8.1,47.6,10.4,72.5h-67.3c-0.8-24.9-3.4-49.3-7.2-72.5H333.5z M346,224.2
	h-75.7c4.8-27,6.8-53.9,6.5-80.3h68C346.8,170.4,347.3,197.4,346,224.2z"/>
</svg>
