<?xml version="1.0" encoding="utf-8"?>
<!-- Generator: Adobe Illustrator 19.0.0, SVG Export Plug-In . SVG Version: 6.00 Build 0)  -->
<svg version="1.1" id="Layer_3" xmlns="http://www.w3.org/2000/svg" xmlns:xlink="http://www.w3.org/1999/xlink" x="0px" y="0px"
	 viewBox="0 0 1661.3 548.4" style="enable-background:new 0 0 1661.3 548.4;" xml:space="preserve">
<style type="text/css">
	.st0{display:none;}
	.st1{fill:#793403;}
	.st2{fill:#8E8E8E;}
</style>
<rect x="-280.6" y="-287.1" class="st0" width="2241.9" height="1254.8"/>
<g>
	<path class="st1" d="M60.9,324.5c0-4.1,0-7.9-0.1-11.3c-0.1-3.4-0.3-5.9-0.5-7.5c-2.1,0-4.8,0.1-7.9,0.2c-3.1,0.1-6.5,0.4-10.1,0.6
		c-3.6,0.3-7.2,0.6-10.9,0.9c-3.7,0.3-7.1,0.6-10.3,1.1c0.3-1.6,0.5-3.1,0.7-4.7c0.2-1.6,0.3-3.1,0.3-4.7c0-1.6-0.1-3.1-0.3-4.7
		c-0.2-1.6-0.5-3.1-0.7-4.7c4.8,0.1,9.2,0.3,13.2,0.4c3.9,0.1,7.9,0.3,12,0.3c4.1,0.1,8.5,0.1,13.3,0.2c4.8,0.1,10.5,0.1,17.2,0.1
		c6.6,0,12.3,0,17.1-0.1c4.8-0.1,9.3-0.1,13.3-0.2c4-0.1,7.8-0.2,11.6-0.3c3.7-0.1,7.8-0.3,12.4-0.4c-0.3,1.6-0.5,3.1-0.7,4.7
		c-0.2,1.6-0.3,3.1-0.3,4.7c0,1.6,0.1,3.1,0.3,4.7c0.2,1.6,0.5,3.1,0.7,4.7c-2.9-0.4-6.1-0.8-9.6-1.1c-3.6-0.3-7.1-0.6-10.6-0.9
		c-3.5-0.3-6.8-0.5-10-0.6c-3.1-0.1-5.8-0.2-7.9-0.2c-0.3,1.6-0.4,4.1-0.4,7.5c0,3.4,0,7.2,0,11.3V378c0,6,0,11.6,0.1,16.7
		c0.1,5.1,0.2,10.1,0.3,14.9c0.1,4.8,0.3,9.4,0.5,13.9c0.2,4.5,0.5,9.1,0.7,13.8c-2.4-0.3-5.1-0.5-7.9-0.7c-2.9-0.2-6.1-0.3-9.6-0.3
		c-3.6,0-6.8,0.1-9.6,0.3c-2.9,0.2-5.5,0.5-7.9,0.7c0.3-4.7,0.5-9.3,0.7-13.8c0.2-4.5,0.4-9.1,0.5-13.9c0.1-4.8,0.2-9.7,0.3-14.9
		c0.1-5.1,0.1-10.7,0.1-16.7V324.5z"/>
</g>
<g>
	<path class="st1" d="M177.6,369.3h-1.9v8.8c0,6,0,11.6,0.1,16.7c0.1,5.1,0.2,10.1,0.3,14.9c0.1,4.8,0.3,9.4,0.5,13.9
		c0.2,4.5,0.5,9.1,0.7,13.8c-2.4-0.3-5.1-0.5-7.9-0.7c-2.9-0.2-6.1-0.3-9.6-0.3c-3.6,0-6.8,0.1-9.6,0.3c-2.9,0.2-5.5,0.5-7.9,0.7
		c0.3-4.7,0.5-9.3,0.7-13.8c0.2-4.5,0.4-9.1,0.5-13.9c0.1-4.8,0.2-9.7,0.3-14.9c0.1-5.1,0.1-10.7,0.1-16.7v-29.1
		c0-6,0-11.6-0.1-16.7c-0.1-5.1-0.2-10.1-0.3-14.9c-0.1-4.8-0.3-9.4-0.5-13.9c-0.2-4.5-0.5-9.1-0.7-13.8c2.4,0.3,5.1,0.5,7.9,0.7
		c2.9,0.2,6.1,0.3,9.6,0.3c3.9,0,8.2-0.2,13.2-0.5c4.9-0.4,11-0.5,18.3-0.5c5.4,0,10.1,0.1,13.9,0.4c3.9,0.3,7.2,0.7,10,1.3
		c2.8,0.6,5.2,1.3,7.3,2.2c2.1,0.9,4,2,5.9,3.3c4.3,3.1,7.7,7,10.2,11.7c2.5,4.6,3.7,10.2,3.7,16.6c0,10.4-2.9,18.9-8.6,25.5
		c-5.7,6.6-13.9,11.2-24.6,13.9c6.8,12.1,14.2,24.3,22,36.4c7.8,12.1,15.7,24.3,23.5,36.4c-3.3-0.3-6.5-0.5-9.6-0.7
		c-3.1-0.2-6.3-0.3-9.6-0.3c-3.3,0-6.5,0.1-9.7,0.3c-3.2,0.2-6.5,0.5-9.7,0.7L177.6,369.3z M209.5,329.9c0-6.3-0.6-11.3-1.9-15
		c-1.3-3.7-3.2-6.5-5.9-8.5c-2.6-1.9-6.1-3.2-10.3-3.7c-4.2-0.6-9.2-0.9-15.1-0.9c-0.4,19.5-0.6,38.9-0.6,58.2
		c0.9,0.1,1.7,0.3,2.5,0.3c0.8,0.1,1.5,0.1,2.2,0.1c9.4,0,16.6-2.6,21.6-7.7C207,347.6,209.5,340,209.5,329.9z"/>
</g>
<g>
	<path class="st1" d="M325.2,288.6c4.6,12.3,9.4,25.3,14.7,38.9c5.2,13.7,10.4,27.3,15.7,40.7c5.3,13.4,10.4,26.1,15.4,38.1
		c5,12,9.6,22.3,13.7,31c-3.4-0.3-6.7-0.5-9.7-0.7c-3.1-0.2-6.1-0.3-9.1-0.3c-3,0-6,0.1-9.1,0.3c-3.1,0.2-6.1,0.5-9.1,0.7
		c-2.3-7.3-4.6-14.6-7.1-21.9c-2.4-7.3-5-14.7-7.7-21.9c-4.6-0.1-9.1-0.2-13.7-0.3c-4.6-0.1-9.1-0.1-13.7-0.1c-3.7,0-7.4,0-11.1,0.1
		c-3.7,0.1-7.4,0.2-11.1,0.3c-2.9,7.3-5.5,14.6-7.9,21.8c-2.4,7.3-4.6,14.6-6.6,22c-1.7-0.3-3.4-0.5-5-0.7c-1.6-0.2-3.3-0.3-5-0.3
		c-1.7,0-3.4,0.1-5.1,0.3c-1.7,0.2-3.6,0.5-5.6,0.7c1.7-4,4-9.3,6.8-15.9c2.9-6.6,6-14.1,9.5-22.4c3.5-8.3,7.2-17.2,11.1-26.6
		c3.9-9.5,7.8-19.1,11.8-28.8c3.9-9.7,7.8-19.3,11.6-28.7c3.8-9.4,7.2-18.2,10.2-26.3c1.4,0.3,2.8,0.5,4.1,0.7
		c1.3,0.2,2.6,0.3,4.1,0.3c1.4,0,2.8-0.1,4.1-0.3C322.4,289.1,323.8,288.9,325.2,288.6z M328,380.8c-3.1-8.7-6.2-17.3-9.3-25.7
		c-3.1-8.4-6.3-16.8-9.7-25.3c-3.7,8.4-7.2,16.8-10.5,25.3c-3.3,8.4-6.5,17-9.6,25.7H328z"/>
</g>
<g>
	<path class="st1" d="M396.1,348.9c0-6,0-11.6-0.1-16.7c-0.1-5.1-0.2-10.1-0.3-14.9c-0.1-4.8-0.3-9.4-0.5-13.9
		c-0.2-4.5-0.5-9.1-0.7-13.8c2.4,0.3,5.1,0.5,7.9,0.7c2.9,0.2,6.1,0.3,9.6,0.3c4.7,0,10-0.2,15.8-0.5c5.8-0.4,13.5-0.5,22.9-0.5
		c12.1,0,23.3,1.1,33.4,3.3c10.1,2.2,18.8,6,26.1,11.2c7.3,5.3,12.9,12.4,16.9,21.4c4,9,6,20.2,6,33.6c0,11.8-2,22.5-5.9,32.1
		c-3.9,9.6-9.3,17.8-16,24.6c-6.8,6.8-14.7,12.1-23.6,15.8c-9,3.7-18.5,5.6-28.5,5.6c-10.7,0-19.8-0.2-27.4-0.5
		c-7.6-0.4-14.1-0.5-19.7-0.5c-3.6,0-6.8,0.1-9.6,0.3c-2.9,0.2-5.5,0.5-7.9,0.7c0.3-4.7,0.5-9.3,0.7-13.8c0.2-4.5,0.4-9.1,0.5-13.9
		c0.1-4.8,0.2-9.7,0.3-14.9c0.1-5.1,0.1-10.7,0.1-16.7V348.9z M427.7,382.7c0,2.9,0,6.5,0,10.8c0,4.4,0,8.6,0,12.8
		c0,4.2,0,8,0.1,11.4c0.1,3.4,0.1,5.6,0.1,6.6c2.1,0.1,4.7,0.3,7.7,0.4c3,0.1,6.7,0.2,11.1,0.2c8,0,15.2-1.4,21.7-4.1
		c6.5-2.7,12-6.8,16.6-12.4c4.6-5.6,8.1-12.5,10.5-20.8c2.4-8.3,3.6-18,3.6-29.1c0-8.7-1.2-16.6-3.5-23.6s-5.7-13.1-10-18
		c-4.3-4.9-9.4-8.7-15.4-11.3c-6-2.6-12.7-4-20.1-4c-5.1,0-9.3,0.1-12.5,0.3c-3.2,0.2-6.5,0.5-9.7,0.7c0,1,0,3.2-0.1,6.6
		c-0.1,3.4-0.1,7.2-0.1,11.4c0,4.2,0,8.5,0,12.8c0,4.4,0,8,0,10.8V382.7z"/>
</g>
<g>
	<path class="st1" d="M549.9,348.9c0-6,0-11.6-0.1-16.7c-0.1-5.1-0.2-10.1-0.3-14.9c-0.1-4.8-0.3-9.4-0.5-13.9
		c-0.2-4.5-0.5-9.1-0.7-13.8c6.5,0.1,12.8,0.4,19.2,0.6c6.3,0.3,12.7,0.4,19.1,0.4c5.3,0,10.3,0,15.1-0.1c4.8-0.1,9.1-0.1,13.1-0.2
		c3.9-0.1,7.3-0.2,10.2-0.3c2.9-0.1,5-0.3,6.4-0.4c-0.3,1.3-0.5,2.6-0.6,4c-0.1,1.4-0.2,3-0.2,5c0,2.3,0.1,4.1,0.2,5.4
		c0.1,1.3,0.4,2.7,0.6,4.3c-4.1-0.3-8.7-0.6-13.6-0.9c-4.9-0.3-9.7-0.6-14.3-0.9c-4.6-0.3-8.8-0.5-12.5-0.6
		c-3.7-0.1-6.3-0.2-7.9-0.2c-0.6,7.8-0.9,15.6-1,23.3c-0.1,7.7-0.1,15.5-0.1,23.3c9.3-0.1,17.7-0.4,25.1-0.6
		c7.5-0.3,15.3-0.6,23.4-1.1c-0.4,2.4-0.7,4.3-0.9,5.6c-0.1,1.3-0.2,2.6-0.2,4.1c0,1.1,0.1,2.3,0.3,3.5c0.2,1.2,0.5,3,0.7,5.2
		c-16.3-1.3-32.5-1.9-48.6-1.9c0,4.6,0,9.1-0.1,13.7c-0.1,4.6-0.1,9.1-0.1,13.7c0,9.3,0.2,18.2,0.6,26.8c8.1,0,16.3-0.2,24.4-0.6
		c8.1-0.4,16.3-1.1,24.6-2.1c-0.3,1.6-0.5,3-0.6,4.3c-0.1,1.3-0.2,3.1-0.2,5.4c0,2.3,0.1,4.1,0.2,5.4c0.1,1.3,0.4,2.6,0.6,3.9
		c-3.9-0.1-8.6-0.4-14.2-0.6c-5.6-0.3-13.4-0.4-23.2-0.4c-8.7,0-15.8,0-21.1,0.1c-5.4,0.1-9.7,0.2-12.9,0.3
		c-3.2,0.1-5.7,0.2-7.3,0.3c-1.7,0.1-3,0.2-4.2,0.3c0.3-4.7,0.5-9.3,0.7-13.8c0.2-4.5,0.4-9.1,0.5-13.9c0.1-4.8,0.2-9.7,0.3-14.9
		c0.1-5.1,0.1-10.7,0.1-16.7V348.9z"/>
</g>
<g>
	<path class="st2" d="M791.3,412.5c-1.1,3-2.1,6-3,9.1c-0.9,3.1-1.4,6.1-1.7,9.1c-5.7,3-12.2,5.3-19.5,7c-7.3,1.6-15.3,2.5-24.2,2.5
		c-12.4,0-23.5-1.8-33.3-5.5c-9.8-3.6-18-8.7-24.8-15.1c-6.8-6.4-12-14-15.5-22.7c-3.6-8.7-5.4-18.1-5.4-28.2
		c0-14.7,2.3-27.2,7-37.7c4.6-10.4,10.8-18.9,18.6-25.4c7.8-6.5,16.8-11.2,27.1-14.2c10.3-3,21-4.5,32.3-4.5c3.7,0,7.6,0.3,11.8,0.7
		c4.1,0.5,8.1,1.3,12,2.2c3.9,1,7.5,2.1,11,3.4c3.5,1.3,6.5,2.6,8.9,4.1c-1.4,3.6-2.5,7.2-3.3,10.8c-0.8,3.6-1.3,7.3-1.6,11h-3
		c-5.4-6.7-11-11.6-16.7-14.6c-5.7-3-12.4-4.5-20.1-4.5c-5.7,0-11.4,1.3-17.2,3.9c-5.8,2.6-11,6.5-15.7,11.8
		c-4.7,5.3-8.5,12.1-11.4,20.3c-2.9,8.3-4.4,18-4.4,29.3c0,11,1.5,20.4,4.5,28.1c3,7.8,6.9,14.1,11.7,19c4.8,4.9,10.2,8.5,16.3,10.8
		c6.1,2.3,12.2,3.4,18.3,3.4c3.4,0,6.9-0.4,10.5-1.2c3.6-0.8,7.1-1.9,10.5-3.2c3.4-1.4,6.7-3,9.7-5c3.1-2,5.7-4.2,8-6.6L791.3,412.5
		z"/>
</g>
<g>
	<path class="st2" d="M1091.3,288.6c4.6,12.3,9.4,25.3,14.7,38.9c5.2,13.7,10.4,27.3,15.7,40.7c5.3,13.4,10.4,26.1,15.4,38.1
		c5,12,9.6,22.3,13.7,31c-3.4-0.3-6.7-0.5-9.7-0.7c-3.1-0.2-6.1-0.3-9.1-0.3c-3,0-6,0.1-9.1,0.3c-3.1,0.2-6.1,0.5-9.1,0.7
		c-2.3-7.3-4.6-14.6-7.1-21.9c-2.4-7.3-5-14.7-7.7-21.9c-4.6-0.1-9.1-0.2-13.7-0.3c-4.6-0.1-9.1-0.1-13.7-0.1c-3.7,0-7.4,0-11.1,0.1
		c-3.7,0.1-7.4,0.2-11.1,0.3c-2.9,7.3-5.5,14.6-7.9,21.8c-2.4,7.3-4.6,14.6-6.6,22c-1.7-0.3-3.4-0.5-5-0.7c-1.6-0.2-3.3-0.3-5-0.3
		c-1.7,0-3.4,0.1-5.1,0.3c-1.7,0.2-3.6,0.5-5.6,0.7c1.7-4,4-9.3,6.8-15.9c2.9-6.6,6-14.1,9.5-22.4c3.5-8.3,7.2-17.2,11.1-26.6
		c3.9-9.5,7.8-19.1,11.8-28.8c3.9-9.7,7.8-19.3,11.6-28.7c3.8-9.4,7.2-18.2,10.2-26.3c1.4,0.3,2.8,0.5,4.1,0.7
		c1.3,0.2,2.6,0.3,4.1,0.3c1.4,0,2.8-0.1,4.1-0.3C1088.6,289.1,1089.9,288.9,1091.3,288.6z M1094.1,380.8
		c-3.1-8.7-6.2-17.3-9.3-25.7c-3.1-8.4-6.3-16.8-9.7-25.3c-3.7,8.4-7.2,16.8-10.5,25.3c-3.3,8.4-6.5,17-9.6,25.7H1094.1z"/>
</g>
<g>
	<path class="st2" d="M1164.1,332.2c0-9.7-0.1-17.9-0.4-24.7c-0.3-6.8-0.5-12.7-0.6-17.9c3.6,0.7,6.8,1.1,9.6,1.1
		c2.9,0,6.1-0.4,9.6-1.1c15.5,17.1,31,34.1,46.2,50.9c15.3,16.8,30.8,33.8,46.7,50.9c0-5.7,0-11.9,0-18.7c0-6.8,0-13.7,0-20.7
		c0-7,0-13.9-0.1-20.7c-0.1-6.8-0.2-13-0.3-18.7c-0.1-5.7-0.3-10.6-0.4-14.7c-0.1-4.1-0.4-6.9-0.6-8.5c3.6,0.7,6.8,1.1,9.6,1.1
		c2.9,0,6.1-0.4,9.6-1.1c-0.6,10.4-1,20-1.4,28.7c-0.4,8.7-0.7,16.9-1,24.7c-0.3,7.8-0.5,15.3-0.6,22.5c-0.1,7.2-0.3,14.6-0.3,22
		c-0.1,7.5-0.1,15.3-0.1,23.4c0,8.1,0,16.9,0,26.3c-1.6-0.3-3-0.5-4.4-0.7c-1.4-0.2-2.8-0.3-4.4-0.3c-2.7,0-5.5,0.4-8.3,1.1
		c-14.7-17.4-29.8-34.7-45.4-52c-15.6-17.3-31.6-34.6-48.1-52c-0.3,8.1-0.4,16.4-0.4,24.9c0,8.5,0,16.8,0,24.9
		c0,8.6,0,15.8,0.1,21.8c0.1,6,0.2,11.1,0.3,15.2c0.1,4.1,0.3,7.5,0.4,10.2c0.1,2.6,0.3,5,0.4,7c-1.7-0.3-3.4-0.5-5.1-0.7
		c-1.7-0.2-3.4-0.3-4.9-0.3c-3,0-6.3,0.4-9.8,1.1c0.1-1,0.4-3.3,0.6-6.8c0.3-3.6,0.6-8,1-13.4c0.4-5.4,0.7-11.4,1-18.2
		c0.3-6.8,0.6-13.9,0.9-21.4c0.3-7.5,0.5-15.1,0.6-22.8C1164,347,1164.1,339.5,1164.1,332.2z"/>
</g>
<g>
	<path class="st2" d="M1319.9,332.2c0-9.7-0.1-17.9-0.4-24.7c-0.3-6.8-0.5-12.7-0.6-17.9c3.6,0.7,6.8,1.1,9.6,1.1
		c2.9,0,6.1-0.4,9.6-1.1c15.5,17.1,31,34.1,46.2,50.9c15.3,16.8,30.8,33.8,46.7,50.9c0-5.7,0-11.9,0-18.7c0-6.8,0-13.7,0-20.7
		c0-7,0-13.9-0.1-20.7c-0.1-6.8-0.2-13-0.3-18.7c-0.1-5.7-0.3-10.6-0.4-14.7c-0.1-4.1-0.4-6.9-0.6-8.5c3.6,0.7,6.8,1.1,9.6,1.1
		c2.9,0,6.1-0.4,9.6-1.1c-0.6,10.4-1,20-1.4,28.7c-0.4,8.7-0.7,16.9-1,24.7c-0.3,7.8-0.5,15.3-0.6,22.5c-0.1,7.2-0.3,14.6-0.3,22
		c-0.1,7.5-0.1,15.3-0.1,23.4c0,8.1,0,16.9,0,26.3c-1.6-0.3-3-0.5-4.4-0.7c-1.4-0.2-2.8-0.3-4.4-0.3c-2.7,0-5.5,0.4-8.3,1.1
		c-14.7-17.4-29.8-34.7-45.4-52c-15.6-17.3-31.6-34.6-48.1-52c-0.3,8.1-0.4,16.4-0.4,24.9c0,8.5,0,16.8,0,24.9
		c0,8.6,0,15.8,0.1,21.8c0.1,6,0.2,11.1,0.3,15.2c0.1,4.1,0.3,7.5,0.4,10.2c0.1,2.6,0.3,5,0.4,7c-1.7-0.3-3.4-0.5-5.1-0.7
		c-1.7-0.2-3.4-0.3-4.9-0.3c-3,0-6.3,0.4-9.8,1.1c0.1-1,0.4-3.3,0.6-6.8c0.3-3.6,0.6-8,1-13.4c0.4-5.4,0.7-11.4,1-18.2
		c0.3-6.8,0.6-13.9,0.9-21.4c0.3-7.5,0.5-15.1,0.6-22.8C1319.8,347,1319.9,339.5,1319.9,332.2z"/>
</g>
<g>
	<path class="st2" d="M1471.8,348.9c0-6,0-11.6-0.1-16.7c-0.1-5.1-0.2-10.1-0.3-14.9c-0.1-4.8-0.3-9.4-0.5-13.9
		c-0.2-4.5-0.5-9.1-0.7-13.8c6.5,0.1,12.8,0.4,19.2,0.6c6.3,0.3,12.7,0.4,19.1,0.4c5.3,0,10.3,0,15.1-0.1c4.8-0.1,9.1-0.1,13.1-0.2
		c3.9-0.1,7.3-0.2,10.2-0.3c2.9-0.1,5-0.3,6.4-0.4c-0.3,1.3-0.5,2.6-0.6,4c-0.1,1.4-0.2,3-0.2,5c0,2.3,0.1,4.1,0.2,5.4
		c0.1,1.3,0.4,2.7,0.6,4.3c-4.1-0.3-8.7-0.6-13.6-0.9c-4.9-0.3-9.7-0.6-14.3-0.9c-4.6-0.3-8.8-0.5-12.5-0.6
		c-3.7-0.1-6.3-0.2-7.9-0.2c-0.6,7.8-0.9,15.6-1,23.3c-0.1,7.7-0.1,15.5-0.1,23.3c9.3-0.1,17.7-0.4,25.1-0.6
		c7.5-0.3,15.3-0.6,23.4-1.1c-0.4,2.4-0.7,4.3-0.9,5.6c-0.1,1.3-0.2,2.6-0.2,4.1c0,1.1,0.1,2.3,0.3,3.5c0.2,1.2,0.5,3,0.7,5.2
		c-16.3-1.3-32.5-1.9-48.6-1.9c0,4.6,0,9.1-0.1,13.7c-0.1,4.6-0.1,9.1-0.1,13.7c0,9.3,0.2,18.2,0.6,26.8c8.1,0,16.3-0.2,24.4-0.6
		c8.1-0.4,16.3-1.1,24.6-2.1c-0.3,1.6-0.5,3-0.6,4.3c-0.1,1.3-0.2,3.1-0.2,5.4c0,2.3,0.1,4.1,0.2,5.4c0.1,1.3,0.4,2.6,0.6,3.9
		c-3.9-0.1-8.6-0.4-14.2-0.6c-5.6-0.3-13.4-0.4-23.2-0.4c-8.7,0-15.8,0-21.1,0.1c-5.4,0.1-9.7,0.2-12.9,0.3
		c-3.2,0.1-5.7,0.2-7.3,0.3c-1.7,0.1-3,0.2-4.2,0.3c0.3-4.7,0.5-9.3,0.7-13.8c0.2-4.5,0.4-9.1,0.5-13.9c0.1-4.8,0.2-9.7,0.3-14.9
		c0.1-5.1,0.1-10.7,0.1-16.7V348.9z"/>
</g>
<g>
	<path class="st2" d="M1570.1,348.9c0-6,0-11.6-0.1-16.7c-0.1-5.1-0.2-10.1-0.3-14.9c-0.1-4.8-0.3-9.4-0.5-13.9
		c-0.2-4.5-0.5-9.1-0.7-13.8c2.4,0.3,5.1,0.5,7.9,0.7c2.9,0.2,6.1,0.3,9.6,0.3c3.6,0,6.8-0.1,9.6-0.3c2.9-0.2,5.5-0.5,7.9-0.7
		c-0.3,4.7-0.5,9.3-0.7,13.8c-0.2,4.5-0.4,9.1-0.5,13.9c-0.1,4.8-0.3,9.7-0.3,14.9c-0.1,5.1-0.1,10.7-0.1,16.7V378
		c0,8,0,15.8,0.1,23.4c0.1,7.6,0.2,14.2,0.3,19.8c8.1,0,16.3-0.2,24.4-0.6c8.1-0.4,16.3-1.1,24.6-2.1c-0.3,1.6-0.5,3-0.6,4.3
		c-0.1,1.3-0.2,3.1-0.2,5.4c0,2.3,0.1,4.1,0.2,5.4c0.1,1.3,0.4,2.6,0.6,3.9c-3.9-0.1-8.6-0.4-14.2-0.6c-5.6-0.3-13.4-0.4-23.2-0.4
		c-8.7,0-15.7,0-21.1,0.1c-5.4,0.1-9.6,0.2-12.8,0.3c-3.2,0.1-5.6,0.2-7.3,0.3c-1.6,0.1-3,0.2-4.2,0.3c0.3-4.7,0.5-9.3,0.7-13.8
		c0.2-4.5,0.4-9.1,0.5-13.9c0.1-4.8,0.2-9.7,0.3-14.9c0.1-5.1,0.1-10.7,0.1-16.7V348.9z"/>
</g>
<g>
	<path class="st2" d="M91.7,516.3c-0.4,1.1-0.8,2.1-1.1,3.2c-0.3,1.1-0.5,2.2-0.6,3.2c-2,1.1-4.3,1.9-6.9,2.5
		c-2.6,0.6-5.4,0.9-8.6,0.9c-4.4,0-8.3-0.6-11.8-1.9c-3.5-1.3-6.4-3.1-8.8-5.4c-2.4-2.3-4.2-5-5.5-8.1c-1.3-3.1-1.9-6.4-1.9-10
		c0-5.2,0.8-9.7,2.5-13.4c1.6-3.7,3.8-6.7,6.6-9c2.8-2.3,6-4,9.6-5.1c3.6-1.1,7.5-1.6,11.5-1.6c1.3,0,2.7,0.1,4.2,0.3
		c1.5,0.2,2.9,0.4,4.3,0.8c1.4,0.4,2.7,0.8,3.9,1.2c1.2,0.5,2.3,0.9,3.2,1.4c-0.5,1.3-0.9,2.5-1.2,3.8c-0.3,1.3-0.5,2.6-0.6,3.9
		h-1.1c-1.9-2.4-3.9-4.1-5.9-5.2c-2-1.1-4.4-1.6-7.1-1.6c-2,0-4.1,0.5-6.1,1.4c-2.1,0.9-3.9,2.3-5.6,4.2c-1.7,1.9-3,4.3-4.1,7.2
		c-1,2.9-1.6,6.4-1.6,10.4c0,3.9,0.5,7.2,1.6,10c1.1,2.8,2.4,5,4.1,6.8c1.7,1.7,3.6,3,5.8,3.8c2.2,0.8,4.3,1.2,6.5,1.2
		c1.2,0,2.5-0.1,3.7-0.4c1.3-0.3,2.5-0.7,3.7-1.1c1.2-0.5,2.4-1.1,3.5-1.8c1.1-0.7,2-1.5,2.8-2.4L91.7,516.3z"/>
</g>
<g>
	<path class="st2" d="M181.7,499.8c-1.9-0.1-3.9-0.1-5.8-0.2c-1.9-0.1-3.9-0.1-5.8-0.1c-1.9,0-3.9,0-5.8,0.1
		c-1.9,0.1-3.9,0.1-5.8,0.2v4.3c0,2.1,0,4.1,0,5.9c0,1.8,0.1,3.6,0.1,5.3c0,1.7,0.1,3.3,0.2,4.9c0.1,1.6,0.2,3.2,0.3,4.9
		c-0.9-0.1-1.8-0.2-2.8-0.3c-1-0.1-2.2-0.1-3.4-0.1c-1.3,0-2.4,0-3.4,0.1c-1,0.1-2,0.2-2.8,0.3c0.1-1.7,0.2-3.3,0.3-4.9
		c0.1-1.6,0.1-3.2,0.2-4.9c0-1.7,0.1-3.5,0.1-5.3c0-1.8,0-3.8,0-5.9v-10.3c0-2.1,0-4.1,0-5.9c0-1.8-0.1-3.6-0.1-5.3
		c-0.1-1.7-0.1-3.3-0.2-4.9c-0.1-1.6-0.2-3.2-0.3-4.9c0.9,0.1,1.8,0.2,2.8,0.3c1,0.1,2.2,0.1,3.4,0.1c1.3,0,2.4,0,3.4-0.1
		c1-0.1,1.9-0.2,2.8-0.3c-0.3,3.3-0.4,6.5-0.5,9.8c-0.1,3.2-0.1,6.9-0.1,11.1c1.3,0.1,2.9,0.1,4.8,0.1c1.8,0,4.1,0,6.9,0
		c2.7,0,5,0,6.7,0c1.7,0,3.3-0.1,4.8-0.1c0-4.2-0.1-7.9-0.2-11.1c-0.1-3.2-0.3-6.5-0.5-9.8c0.9,0.1,1.8,0.2,2.8,0.3
		c1,0.1,2.2,0.1,3.4,0.1c1.3,0,2.4,0,3.4-0.1c1-0.1,1.9-0.2,2.8-0.3c-0.1,1.7-0.2,3.3-0.3,4.9c-0.1,1.6-0.1,3.2-0.2,4.9
		c-0.1,1.7-0.1,3.5-0.1,5.3c0,1.8,0,3.8,0,5.9v10.3c0,2.1,0,4.1,0,5.9c0,1.8,0.1,3.6,0.1,5.3c0,1.7,0.1,3.3,0.2,4.9
		c0.1,1.6,0.2,3.2,0.3,4.9c-0.9-0.1-1.8-0.2-2.8-0.3c-1-0.1-2.2-0.1-3.4-0.1c-1.3,0-2.4,0-3.4,0.1c-1,0.1-2,0.2-2.8,0.3
		c0.1-1.7,0.2-3.3,0.3-4.9c0.1-1.6,0.1-3.2,0.2-4.9c0-1.7,0.1-3.5,0.1-5.3c0-1.8,0-3.8,0-5.9V499.8z"/>
</g>
<g>
	<path class="st2" d="M274.2,472.3c1.6,4.4,3.4,9,5.2,13.8c1.8,4.9,3.7,9.7,5.6,14.4c1.9,4.8,3.7,9.3,5.5,13.5
		c1.8,4.3,3.4,7.9,4.9,11c-1.2-0.1-2.4-0.2-3.5-0.3c-1.1-0.1-2.2-0.1-3.2-0.1c-1.1,0-2.1,0-3.2,0.1c-1.1,0.1-2.2,0.2-3.2,0.3
		c-0.8-2.6-1.6-5.2-2.5-7.8c-0.9-2.6-1.8-5.2-2.7-7.8c-1.6,0-3.2-0.1-4.9-0.1c-1.6,0-3.2,0-4.9,0c-1.3,0-2.6,0-4,0
		c-1.3,0-2.6,0.1-4,0.1c-1,2.6-2,5.2-2.8,7.8c-0.9,2.6-1.6,5.2-2.4,7.8c-0.6-0.1-1.2-0.2-1.8-0.3c-0.6-0.1-1.2-0.1-1.8-0.1
		c-0.6,0-1.2,0-1.8,0.1c-0.6,0.1-1.3,0.2-2,0.3c0.6-1.4,1.4-3.3,2.4-5.7c1-2.4,2.1-5,3.4-7.9c1.2-2.9,2.6-6.1,4-9.5
		c1.4-3.4,2.8-6.8,4.2-10.2c1.4-3.4,2.8-6.8,4.1-10.2c1.3-3.3,2.5-6.5,3.6-9.3c0.5,0.1,1,0.2,1.4,0.3c0.5,0.1,0.9,0.1,1.4,0.1
		c0.5,0,1,0,1.4-0.1C273.2,472.5,273.7,472.4,274.2,472.3z M275.2,505.1c-1.1-3.1-2.2-6.1-3.3-9.1c-1.1-3-2.2-6-3.5-9
		c-1.3,3-2.6,6-3.7,9c-1.2,3-2.3,6-3.4,9.1H275.2z"/>
</g>
<g>
	<path class="st2" d="M349.9,487.8c0-3.4-0.1-6.4-0.2-8.8c-0.1-2.4-0.2-4.5-0.2-6.3c1.3,0.3,2.4,0.4,3.4,0.4c1,0,2.2-0.1,3.4-0.4
		c5.5,6.1,11,12.1,16.4,18.1c5.4,6,10.9,12,16.6,18.1c0-2,0-4.2,0-6.6c0-2.4,0-4.9,0-7.3c0-2.5,0-4.9,0-7.3c0-2.4-0.1-4.6-0.1-6.7
		c-0.1-2-0.1-3.8-0.2-5.2c-0.1-1.4-0.1-2.4-0.2-3c1.3,0.3,2.4,0.4,3.4,0.4c1,0,2.2-0.1,3.4-0.4c-0.2,3.7-0.4,7.1-0.5,10.2
		c-0.1,3.1-0.2,6-0.3,8.8c-0.1,2.8-0.2,5.4-0.2,8c-0.1,2.6-0.1,5.2-0.1,7.8c0,2.7,0,5.4,0,8.3c0,2.9,0,6,0,9.3
		c-0.6-0.1-1.1-0.2-1.6-0.3c-0.5-0.1-1-0.1-1.6-0.1c-1,0-2,0.1-3,0.4c-5.2-6.2-10.6-12.3-16.1-18.5c-5.5-6.1-11.2-12.3-17.1-18.5
		c-0.1,2.9-0.2,5.8-0.2,8.9c0,3,0,6,0,8.9c0,3,0,5.6,0,7.8c0,2.1,0.1,3.9,0.1,5.4c0,1.5,0.1,2.7,0.2,3.6c0,0.9,0.1,1.8,0.2,2.5
		c-0.6-0.1-1.2-0.2-1.8-0.3c-0.6-0.1-1.2-0.1-1.7-0.1c-1.1,0-2.2,0.1-3.5,0.4c0-0.4,0.1-1.2,0.2-2.4c0.1-1.3,0.2-2.9,0.3-4.8
		c0.1-1.9,0.2-4.1,0.3-6.5c0.1-2.4,0.2-4.9,0.3-7.6c0.1-2.7,0.2-5.4,0.2-8.1C349.9,493.1,349.9,490.4,349.9,487.8z"/>
</g>
<g>
	<path class="st2" d="M455.1,487.8c0-3.4-0.1-6.4-0.2-8.8c-0.1-2.4-0.2-4.5-0.2-6.3c1.3,0.3,2.4,0.4,3.4,0.4c1,0,2.2-0.1,3.4-0.4
		c5.5,6.1,11,12.1,16.4,18.1c5.4,6,10.9,12,16.6,18.1c0-2,0-4.2,0-6.6c0-2.4,0-4.9,0-7.3c0-2.5,0-4.9,0-7.3c0-2.4-0.1-4.6-0.1-6.7
		c-0.1-2-0.1-3.8-0.2-5.2c-0.1-1.4-0.1-2.4-0.2-3c1.3,0.3,2.4,0.4,3.4,0.4c1,0,2.2-0.1,3.4-0.4c-0.2,3.7-0.4,7.1-0.5,10.2
		c-0.1,3.1-0.2,6-0.3,8.8c-0.1,2.8-0.2,5.4-0.2,8c-0.1,2.6-0.1,5.2-0.1,7.8c0,2.7,0,5.4,0,8.3c0,2.9,0,6,0,9.3
		c-0.6-0.1-1.1-0.2-1.6-0.3c-0.5-0.1-1-0.1-1.6-0.1c-1,0-2,0.1-3,0.4c-5.2-6.2-10.6-12.3-16.1-18.5c-5.5-6.1-11.2-12.3-17.1-18.5
		c-0.1,2.9-0.2,5.8-0.2,8.9c0,3,0,6,0,8.9c0,3,0,5.6,0,7.8c0,2.1,0.1,3.9,0.1,5.4c0,1.5,0.1,2.7,0.2,3.6c0,0.9,0.1,1.8,0.2,2.5
		c-0.6-0.1-1.2-0.2-1.8-0.3c-0.6-0.1-1.2-0.1-1.7-0.1c-1.1,0-2.2,0.1-3.5,0.4c0-0.4,0.1-1.2,0.2-2.4c0.1-1.3,0.2-2.9,0.3-4.8
		c0.1-1.9,0.2-4.1,0.3-6.5c0.1-2.4,0.2-4.9,0.3-7.6c0.1-2.7,0.2-5.4,0.2-8.1C455.1,493.1,455.1,490.4,455.1,487.8z"/>
</g>
<g>
	<path class="st2" d="M558.9,493.8c0-2.1,0-4.1,0-5.9c0-1.8-0.1-3.6-0.1-5.3c-0.1-1.7-0.1-3.3-0.2-4.9c-0.1-1.6-0.2-3.2-0.3-4.9
		c2.3,0.1,4.6,0.1,6.8,0.2c2.2,0.1,4.5,0.2,6.8,0.2c1.9,0,3.7,0,5.4,0c1.7,0,3.2,0,4.6-0.1c1.4,0,2.6-0.1,3.6-0.1
		c1,0,1.8-0.1,2.3-0.2c-0.1,0.5-0.2,0.9-0.2,1.4c-0.1,0.5-0.1,1.1-0.1,1.8c0,0.8,0,1.4,0.1,1.9c0,0.5,0.1,1,0.2,1.5
		c-1.5-0.1-3.1-0.2-4.8-0.3c-1.7-0.1-3.4-0.2-5.1-0.3c-1.6-0.1-3.1-0.2-4.4-0.2c-1.3-0.1-2.3-0.1-2.8-0.1c-0.2,2.8-0.3,5.5-0.3,8.3
		c0,2.7,0,5.5,0,8.3c3.3,0,6.3-0.1,8.9-0.2c2.7-0.1,5.4-0.2,8.3-0.4c-0.2,0.9-0.3,1.5-0.3,2c-0.1,0.5-0.1,0.9-0.1,1.4
		c0,0.4,0,0.8,0.1,1.3c0.1,0.4,0.2,1.1,0.3,1.9c-5.8-0.5-11.5-0.7-17.3-0.7c0,1.6,0,3.2,0,4.9c0,1.6,0,3.2,0,4.9
		c0,3.3,0.1,6.5,0.2,9.5c2.9,0,5.8-0.1,8.7-0.2c2.9-0.2,5.8-0.4,8.7-0.8c-0.1,0.6-0.2,1.1-0.2,1.5c-0.1,0.5-0.1,1.1-0.1,1.9
		c0,0.8,0,1.4,0.1,1.9c0,0.5,0.1,0.9,0.2,1.4c-1.4-0.1-3.1-0.1-5.1-0.2c-2-0.1-4.8-0.2-8.2-0.2c-3.1,0-5.6,0-7.5,0
		c-1.9,0-3.4,0.1-4.6,0.1c-1.1,0-2,0.1-2.6,0.1c-0.6,0-1.1,0.1-1.5,0.1c0.1-1.7,0.2-3.3,0.3-4.9c0.1-1.6,0.1-3.2,0.2-4.9
		c0-1.7,0.1-3.5,0.1-5.3c0-1.8,0-3.8,0-5.9V493.8z"/>
</g>
<g>
	<path class="st2" d="M643.7,493.8c0-2.1,0-4.1,0-5.9c0-1.8-0.1-3.6-0.1-5.3c-0.1-1.7-0.1-3.3-0.2-4.9c-0.1-1.6-0.2-3.2-0.3-4.9
		c0.9,0.1,1.8,0.2,2.8,0.3c1,0.1,2.2,0.1,3.4,0.1c1.3,0,2.4,0,3.4-0.1c1-0.1,1.9-0.2,2.8-0.3c-0.1,1.7-0.2,3.3-0.3,4.9
		c-0.1,1.6-0.1,3.2-0.2,4.9c-0.1,1.7-0.1,3.5-0.1,5.3c0,1.8,0,3.8,0,5.9v10.3c0,2.8,0,5.6,0,8.3c0,2.7,0.1,5.1,0.1,7
		c2.9,0,5.8-0.1,8.7-0.2c2.9-0.2,5.8-0.4,8.7-0.8c-0.1,0.6-0.2,1.1-0.2,1.5c-0.1,0.5-0.1,1.1-0.1,1.9c0,0.8,0,1.4,0.1,1.9
		c0,0.5,0.1,0.9,0.2,1.4c-1.4-0.1-3.1-0.1-5.1-0.2c-2-0.1-4.8-0.2-8.2-0.2c-3.1,0-5.6,0-7.5,0c-1.9,0-3.4,0.1-4.6,0.1
		c-1.1,0-2,0.1-2.6,0.1c-0.6,0-1.1,0.1-1.5,0.1c0.1-1.7,0.2-3.3,0.3-4.9c0.1-1.6,0.1-3.2,0.2-4.9c0-1.7,0.1-3.5,0.1-5.3
		c0-1.8,0-3.8,0-5.9V493.8z"/>
</g>
<g>
	<path class="st2" d="M803.9,485.1c0-1.5,0-2.8,0-4c0-1.2-0.1-2.1-0.2-2.7c-0.8,0-1.7,0-2.8,0.1c-1.1,0.1-2.3,0.1-3.6,0.2
		c-1.3,0.1-2.6,0.2-3.9,0.3c-1.3,0.1-2.5,0.2-3.6,0.4c0.1-0.6,0.2-1.1,0.3-1.7c0.1-0.6,0.1-1.1,0.1-1.7c0-0.6,0-1.1-0.1-1.7
		c-0.1-0.6-0.2-1.1-0.3-1.7c1.7,0.1,3.3,0.1,4.7,0.2c1.4,0.1,2.8,0.1,4.3,0.1c1.4,0,3,0.1,4.7,0.1c1.7,0,3.7,0,6.1,0
		c2.3,0,4.4,0,6.1,0c1.7,0,3.3,0,4.7-0.1c1.4,0,2.8-0.1,4.1-0.1c1.3,0,2.8-0.1,4.4-0.2c-0.1,0.6-0.2,1.1-0.3,1.7
		c-0.1,0.6-0.1,1.1-0.1,1.7c0,0.6,0,1.1,0.1,1.7c0.1,0.6,0.2,1.1,0.3,1.7c-1-0.2-2.2-0.3-3.4-0.4c-1.3-0.1-2.5-0.2-3.8-0.3
		c-1.2-0.1-2.4-0.2-3.5-0.2c-1.1-0.1-2.1-0.1-2.8-0.1c-0.1,0.6-0.2,1.4-0.2,2.7c0,1.2,0,2.6,0,4v19c0,2.1,0,4.1,0,5.9
		c0,1.8,0.1,3.6,0.1,5.3c0,1.7,0.1,3.3,0.2,4.9c0.1,1.6,0.2,3.2,0.3,4.9c-0.9-0.1-1.8-0.2-2.8-0.3c-1-0.1-2.2-0.1-3.4-0.1
		c-1.3,0-2.4,0-3.4,0.1c-1,0.1-2,0.2-2.8,0.3c0.1-1.7,0.2-3.3,0.3-4.9c0.1-1.6,0.1-3.2,0.2-4.9c0-1.7,0.1-3.5,0.1-5.3
		c0-1.8,0-3.8,0-5.9V485.1z"/>
</g>
<g>
	<path class="st2" d="M879.1,498.9c0-3.7,0.7-7.3,2.1-10.6c1.4-3.3,3.4-6.2,5.9-8.7c2.5-2.5,5.6-4.4,9.2-5.9c3.6-1.4,7.6-2.1,12-2.1
		c4,0,7.8,0.6,11.3,1.7c3.5,1.1,6.6,2.8,9.2,5c2.6,2.2,4.6,5.1,6.1,8.5c1.5,3.4,2.2,7.4,2.2,12c0,3.8-0.7,7.3-2.2,10.6
		c-1.4,3.3-3.4,6.2-6,8.7c-2.6,2.5-5.6,4.4-9.2,5.9c-3.5,1.4-7.4,2.1-11.7,2.1c-4,0-7.8-0.5-11.3-1.6c-3.5-1.1-6.6-2.7-9.2-4.9
		c-2.6-2.2-4.7-5-6.2-8.4C879.9,507.8,879.1,503.7,879.1,498.9z M924.6,497.3c0-3.3-0.4-6.2-1.2-8.9c-0.8-2.6-1.9-4.8-3.4-6.7
		c-1.4-1.8-3.2-3.2-5.2-4.2c-2.1-1-4.3-1.5-6.7-1.5c-2.6,0-4.9,0.6-7,1.9c-2.1,1.2-3.8,2.9-5.2,5.1c-1.4,2.1-2.5,4.6-3.2,7.5
		c-0.7,2.9-1.1,5.9-1.1,9.2c0,4.1,0.4,7.5,1.3,10.3c0.9,2.8,2,5,3.5,6.7c1.5,1.7,3.2,2.9,5.1,3.7c1.9,0.8,4,1.1,6.1,1.1
		c2.3,0,4.5-0.5,6.5-1.4c2.1-1,3.9-2.4,5.4-4.4c1.5-2,2.8-4.5,3.7-7.5C924.2,505,924.6,501.4,924.6,497.3z"/>
</g>
<g>
	<path class="st1" d="M1082.2,483c-1.6-4.4-4.7-6.5-9.2-6.5c-2.3,0-4.2,0.7-5.7,2.1c-1.5,1.4-2.2,3-2.2,4.8c0,1.9,0.6,3.4,1.7,4.6
		c1.1,1.2,2.6,2.3,4.3,3.2c1.7,1,3.6,1.9,5.5,2.8c2,0.9,3.8,2,5.5,3.3c1.7,1.3,3.2,2.9,4.3,4.7c1.1,1.9,1.7,4.2,1.7,7.1
		c0,2.5-0.5,4.9-1.4,7c-1,2.1-2.3,3.9-4.1,5.4c-1.8,1.5-3.9,2.7-6.3,3.5c-2.5,0.8-5.2,1.3-8.2,1.3c-2.7,0-5.2-0.3-7.3-1
		c-2.2-0.7-3.8-1.4-4.9-2.3c0.5-1.8,0.9-3.4,1.3-4.9c0.4-1.5,0.7-3.1,0.9-4.8h1.4c0.2,1.1,0.6,2.2,1.1,3.2c0.5,1,1.2,1.9,2.1,2.6
		c0.9,0.8,1.9,1.4,3.2,1.8c1.2,0.4,2.6,0.6,4.1,0.6c3,0,5.2-0.8,6.7-2.3c1.5-1.5,2.2-3.3,2.2-5.5c0-1.9-0.6-3.5-1.7-4.7
		c-1.1-1.2-2.5-2.3-4.2-3.2c-1.7-0.9-3.5-1.8-5.5-2.7c-2-0.9-3.8-2-5.5-3.2c-1.7-1.3-3.1-2.8-4.2-4.7c-1.1-1.8-1.7-4.2-1.7-7.1
		c0-2.6,0.5-5,1.4-7c0.9-2,2.2-3.7,3.8-5.1c1.6-1.4,3.4-2.4,5.4-3.1c2.1-0.7,4.2-1.1,6.5-1.1c2.7,0,5.1,0.3,7.2,1
		c2.1,0.7,3.8,1.6,5.3,2.7c-0.5,1.2-0.8,2.3-1.2,3.4c-0.3,1.1-0.7,2.5-1.3,4.1H1082.2z"/>
</g>
<g>
	<path class="st1" d="M1167,526.1c-3.2,0-6.3-0.4-9.1-1.1c-2.8-0.7-5.3-1.9-7.3-3.5c-2.1-1.6-3.7-3.7-4.9-6.2
		c-1.2-2.5-1.8-5.6-1.8-9.2c0-2,0-3.8,0-5.4c0-1.6,0-3.1,0-4.4c0-1.4,0-2.7,0-4c0-1.3,0-2.6,0-4c0-4.1,0-7.4-0.1-9.9
		c-0.1-2.6-0.1-4.5-0.2-5.7c1,0.1,2.1,0.2,3.1,0.3c1.1,0.1,2.1,0.1,3.1,0.1c1,0,2.1,0,3.1-0.1c1.1-0.1,2.1-0.2,3.1-0.3
		c-0.3,2.5-0.4,4.9-0.6,7.1c-0.1,2.3-0.2,4.5-0.3,6.6c-0.1,2.2-0.1,4.3-0.2,6.4c0,2.1,0,4.3,0,6.5c0,4.7,0.3,8.4,1,11.2
		c0.7,2.8,1.6,5,2.9,6.5c1.3,1.5,2.9,2.6,4.8,3.1c1.9,0.5,4.1,0.8,6.5,0.8c3,0,5.4-0.8,7.1-2.3c1.7-1.5,3-3.5,3.9-6.1
		c0.9-2.5,1.4-5.4,1.6-8.7c0.2-3.3,0.3-6.7,0.3-10.2c0-3.5-0.1-7-0.2-10.5c-0.1-3.5-0.3-7-0.5-10.4c1.4,0.3,2.7,0.4,3.9,0.4
		c0.7,0,1.3,0,1.9-0.1c0.6-0.1,1.2-0.2,1.9-0.3c-0.1,1.1-0.2,2.6-0.3,4.5c-0.1,1.9-0.2,4-0.3,6.5c-0.1,2.5-0.2,5.2-0.2,8.1
		c-0.1,3-0.1,6.1-0.1,9.4c0,8.8-1.9,15.2-5.7,19.1C1179.9,524.2,1174.3,526.1,1167,526.1z"/>
</g>
<g>
	<path class="st1" d="M1290.1,516.3c-0.4,1.1-0.8,2.1-1.1,3.2c-0.3,1.1-0.5,2.2-0.6,3.2c-2,1.1-4.3,1.9-6.9,2.5
		c-2.6,0.6-5.4,0.9-8.6,0.9c-4.4,0-8.3-0.6-11.8-1.9c-3.5-1.3-6.4-3.1-8.8-5.4c-2.4-2.3-4.2-5-5.5-8.1c-1.3-3.1-1.9-6.4-1.9-10
		c0-5.2,0.8-9.7,2.5-13.4c1.6-3.7,3.8-6.7,6.6-9c2.8-2.3,6-4,9.6-5.1c3.6-1.1,7.5-1.6,11.5-1.6c1.3,0,2.7,0.1,4.2,0.3
		c1.5,0.2,2.9,0.4,4.3,0.8c1.4,0.4,2.7,0.8,3.9,1.2c1.2,0.5,2.3,0.9,3.2,1.4c-0.5,1.3-0.9,2.5-1.2,3.8c-0.3,1.3-0.5,2.6-0.6,3.9
		h-1.1c-1.9-2.4-3.9-4.1-5.9-5.2c-2-1.1-4.4-1.6-7.1-1.6c-2,0-4.1,0.5-6.1,1.4c-2.1,0.9-3.9,2.3-5.6,4.2c-1.7,1.9-3,4.3-4.1,7.2
		c-1,2.9-1.6,6.4-1.6,10.4c0,3.9,0.5,7.2,1.6,10c1.1,2.8,2.4,5,4.1,6.8c1.7,1.7,3.6,3,5.8,3.8c2.2,0.8,4.3,1.2,6.5,1.2
		c1.2,0,2.5-0.1,3.7-0.4c1.3-0.3,2.5-0.7,3.7-1.1c1.2-0.5,2.4-1.1,3.5-1.8c1.1-0.7,2-1.5,2.9-2.4L1290.1,516.3z"/>
</g>
<g>
	<path class="st1" d="M1386.9,516.3c-0.4,1.1-0.8,2.1-1.1,3.2c-0.3,1.1-0.5,2.2-0.6,3.2c-2,1.1-4.3,1.9-6.9,2.5
		c-2.6,0.6-5.4,0.9-8.6,0.9c-4.4,0-8.3-0.6-11.8-1.9c-3.5-1.3-6.4-3.1-8.8-5.4c-2.4-2.3-4.2-5-5.5-8.1c-1.3-3.1-1.9-6.4-1.9-10
		c0-5.2,0.8-9.7,2.5-13.4c1.6-3.7,3.9-6.7,6.6-9c2.8-2.3,6-4,9.6-5.1c3.6-1.1,7.5-1.6,11.5-1.6c1.3,0,2.7,0.1,4.2,0.3
		c1.5,0.2,2.9,0.4,4.3,0.8c1.4,0.4,2.7,0.8,3.9,1.2c1.2,0.5,2.3,0.9,3.2,1.4c-0.5,1.3-0.9,2.5-1.2,3.8c-0.3,1.3-0.5,2.6-0.6,3.9
		h-1.1c-1.9-2.4-3.9-4.1-5.9-5.2c-2-1.1-4.4-1.6-7.1-1.6c-2,0-4.1,0.5-6.1,1.4c-2.1,0.9-3.9,2.3-5.6,4.2c-1.7,1.9-3,4.3-4.1,7.2
		c-1,2.9-1.6,6.4-1.6,10.4c0,3.9,0.5,7.2,1.6,10c1.1,2.8,2.4,5,4.1,6.8c1.7,1.7,3.6,3,5.8,3.8c2.2,0.8,4.3,1.2,6.5,1.2
		c1.2,0,2.5-0.1,3.7-0.4c1.3-0.3,2.5-0.7,3.7-1.1c1.2-0.5,2.4-1.1,3.5-1.8c1.1-0.7,2-1.5,2.9-2.4L1386.9,516.3z"/>
</g>
<g>
	<path class="st1" d="M1441.8,493.8c0-2.1,0-4.1,0-5.9c0-1.8-0.1-3.6-0.1-5.3c-0.1-1.7-0.1-3.3-0.2-4.9c-0.1-1.6-0.2-3.2-0.3-4.9
		c2.3,0.1,4.6,0.1,6.8,0.2c2.2,0.1,4.5,0.2,6.8,0.2c1.9,0,3.7,0,5.4,0c1.7,0,3.2,0,4.6-0.1c1.4,0,2.6-0.1,3.6-0.1
		c1,0,1.8-0.1,2.3-0.2c-0.1,0.5-0.2,0.9-0.2,1.4c-0.1,0.5-0.1,1.1-0.1,1.8c0,0.8,0,1.4,0.1,1.9c0,0.5,0.1,1,0.2,1.5
		c-1.5-0.1-3.1-0.2-4.8-0.3c-1.7-0.1-3.4-0.2-5.1-0.3c-1.6-0.1-3.1-0.2-4.4-0.2c-1.3-0.1-2.3-0.1-2.8-0.1c-0.2,2.8-0.3,5.5-0.3,8.3
		c0,2.7,0,5.5,0,8.3c3.3,0,6.3-0.1,8.9-0.2c2.7-0.1,5.4-0.2,8.3-0.4c-0.2,0.9-0.3,1.5-0.3,2c-0.1,0.5-0.1,0.9-0.1,1.4
		c0,0.4,0,0.8,0.1,1.3c0.1,0.4,0.2,1.1,0.3,1.9c-5.8-0.5-11.5-0.7-17.3-0.7c0,1.6,0,3.2,0,4.9c0,1.6,0,3.2,0,4.9
		c0,3.3,0.1,6.5,0.2,9.5c2.9,0,5.8-0.1,8.7-0.2c2.9-0.2,5.8-0.4,8.7-0.8c-0.1,0.6-0.2,1.1-0.2,1.5c-0.1,0.5-0.1,1.1-0.1,1.9
		c0,0.8,0,1.4,0.1,1.9c0,0.5,0.1,0.9,0.2,1.4c-1.4-0.1-3.1-0.1-5.1-0.2c-2-0.1-4.8-0.2-8.2-0.2c-3.1,0-5.6,0-7.5,0
		c-1.9,0-3.4,0.1-4.6,0.1c-1.1,0-2,0.1-2.6,0.1c-0.6,0-1.1,0.1-1.5,0.1c0.1-1.7,0.2-3.3,0.3-4.9c0.1-1.6,0.1-3.2,0.2-4.9
		c0-1.7,0.1-3.5,0.1-5.3c0-1.8,0-3.8,0-5.9V493.8z"/>
</g>
<g>
	<path class="st1" d="M1549,483c-1.6-4.4-4.7-6.5-9.2-6.5c-2.3,0-4.2,0.7-5.7,2.1c-1.5,1.4-2.2,3-2.2,4.8c0,1.9,0.6,3.4,1.7,4.6
		c1.1,1.2,2.6,2.3,4.3,3.2c1.7,1,3.6,1.9,5.5,2.8c2,0.9,3.8,2,5.5,3.3c1.7,1.3,3.2,2.9,4.3,4.7c1.1,1.9,1.7,4.2,1.7,7.1
		c0,2.5-0.5,4.9-1.4,7c-1,2.1-2.3,3.9-4.1,5.4c-1.8,1.5-3.9,2.7-6.3,3.5c-2.5,0.8-5.2,1.3-8.2,1.3c-2.7,0-5.2-0.3-7.3-1
		c-2.2-0.7-3.8-1.4-4.9-2.3c0.5-1.8,0.9-3.4,1.3-4.9c0.4-1.5,0.7-3.1,0.9-4.8h1.4c0.2,1.1,0.6,2.2,1.1,3.2c0.5,1,1.2,1.9,2.1,2.6
		c0.9,0.8,1.9,1.4,3.2,1.8c1.2,0.4,2.6,0.6,4.1,0.6c3,0,5.2-0.8,6.7-2.3c1.5-1.5,2.2-3.3,2.2-5.5c0-1.9-0.6-3.5-1.7-4.7
		c-1.1-1.2-2.5-2.3-4.2-3.2c-1.7-0.9-3.5-1.8-5.5-2.7c-2-0.9-3.8-2-5.5-3.2c-1.7-1.3-3.1-2.8-4.2-4.7c-1.1-1.8-1.7-4.2-1.7-7.1
		c0-2.6,0.5-5,1.4-7c0.9-2,2.2-3.7,3.8-5.1c1.6-1.4,3.4-2.4,5.4-3.1c2.1-0.7,4.2-1.1,6.5-1.1c2.7,0,5.1,0.3,7.2,1
		c2.1,0.7,3.8,1.6,5.3,2.7c-0.5,1.2-0.8,2.3-1.2,3.4c-0.3,1.1-0.7,2.5-1.3,4.1H1549z"/>
</g>
<g>
	<path class="st1" d="M1633,483c-1.6-4.4-4.7-6.5-9.2-6.5c-2.3,0-4.2,0.7-5.7,2.1c-1.5,1.4-2.2,3-2.2,4.8c0,1.9,0.6,3.4,1.7,4.6
		c1.1,1.2,2.6,2.3,4.3,3.2c1.7,1,3.6,1.9,5.5,2.8c2,0.9,3.8,2,5.5,3.3c1.7,1.3,3.2,2.9,4.3,4.7c1.1,1.9,1.7,4.2,1.7,7.1
		c0,2.5-0.5,4.9-1.4,7c-1,2.1-2.3,3.9-4.1,5.4c-1.8,1.5-3.9,2.7-6.3,3.5c-2.5,0.8-5.2,1.3-8.2,1.3c-2.7,0-5.2-0.3-7.3-1
		c-2.2-0.7-3.8-1.4-4.9-2.3c0.5-1.8,0.9-3.4,1.3-4.9c0.4-1.5,0.7-3.1,0.9-4.8h1.4c0.2,1.1,0.6,2.2,1.1,3.2c0.5,1,1.2,1.9,2.1,2.6
		c0.9,0.8,1.9,1.4,3.2,1.8c1.2,0.4,2.6,0.6,4.1,0.6c3,0,5.2-0.8,6.7-2.3c1.5-1.5,2.2-3.3,2.2-5.5c0-1.9-0.6-3.5-1.7-4.7
		c-1.1-1.2-2.5-2.3-4.2-3.2c-1.7-0.9-3.5-1.8-5.5-2.7c-2-0.9-3.8-2-5.5-3.2c-1.7-1.3-3.1-2.8-4.2-4.7c-1.1-1.8-1.7-4.2-1.7-7.1
		c0-2.6,0.5-5,1.4-7c0.9-2,2.2-3.7,3.8-5.1c1.6-1.4,3.4-2.4,5.4-3.1c2.1-0.7,4.2-1.1,6.5-1.1c2.7,0,5.1,0.3,7.2,1
		c2.1,0.7,3.8,1.6,5.3,2.7c-0.5,1.2-0.8,2.3-1.2,3.4c-0.3,1.1-0.7,2.5-1.3,4.1H1633z"/>
</g>
<g>
	<path class="st2" d="M960.7,197.6c-3.1-36.6-3.7-68.8-3.6-93.8c47.8,67.1,98.7,107.9,159.3,133.7c64.3,27.3,168,50.3,168,50.3
		s-89.8-23.7-177.1-75.2c-72.5-42.8-129.6-122.4-147-148.3c0.7-1.2,1.4-2.4,2-3.6c7.2-0.1,12-0.6,13.3-1.6
		c4.9-3.6,15.8-17.6,15.8-17.6L957.6,41c-0.3-13.5-1.3-20.6-8.1-20.7c-5.4,0-10.8,6.7-14.9,20.4l-82.4-1c-3-10.4-7.9-19.4-7.9-19.4
		c-7.1,7.1-11.9,11.9-15.2,19.7c-7.1,2.5-14.2,5.1-14.2,5.1s1.7,3.9,10.5,7.5c-0.4,2.1-0.8,4.3-1.2,6.8
		c-93,98.1-228.9,181-384.5,229.4c184.3-32.4,326-144,381.1-193.3c0,0.8-0.1,1.5-0.1,2.3c-0.9,13.9-2.3,41.4-4.1,75.1
		c-51.9,34.4-119.1,71.7-197.9,100.4c64.4-8.9,138.1-45.8,197-82.6c-1.4,28.1-3,59.4-4.5,90c-4.5,0-8-0.8-8-0.8s-1.6,4.6,7.6,10.5
		c-4,80.3-7.6,154-7.6,154s8.8-40.5,25.7-146c21.9,7.4,51.1,12.2,84.4,5.1c13.8-2.9,26.2-5.9,36.2-8.6c0.7,2.7,1.4,5.4,2.1,8
		c16.4,60.7,54,133.3,54,133.3s-18.7-65.8-32.9-148.8c2-0.9,3.1-1.6,3.1-2.1c0-1.1,0.7-2.8-4.2-4c-1.6-9.6-3.1-19.4-4.6-29.3
		c-1.7-11.7-3.1-23.2-4.3-34.3c16.1,11.6,32.1,21.5,47.6,30.1c59.4,32.8,143.2,47.3,143.2,47.3s-114-31.5-179-85.5
		C969.8,205.7,965.2,201.7,960.7,197.6z M927.9,105.5c0.1,17.9,1,39.9,2.8,63.3c-11.8-12.1-23-24.4-33-35.9c0.3-0.2,0.6-0.5,0.9-0.7
		C910,122.9,919.7,114,927.9,105.5z M930.6,60.2c-1,6.8-1.7,14.4-2.2,23c-1.5,1.6-3.1,3.2-4.7,4.8c-7.6,7.8-19.9,19.2-36.4,32.7
		c-15.9-18.8-28-34.5-34.1-42.5c0.5-9.2,0.8-15.8,1.1-19.7c4.7,0.3,9.9,0.5,15.8,0.5C891.1,59.1,912.5,59.7,930.6,60.2z
		 M851.6,105.7c6.8,9.5,13.8,18.5,20.8,27.1c-7.5,5.8-15.6,12-24.3,18.3C849.6,133.7,850.8,118.5,851.6,105.7z M945.8,279.5
		c-6.1,0-13.5,0.1-22.3,0.4c-41.4,1.4-76.7,0.5-91.7-0.1c0.3-1.9,0.6-3.8,0.9-5.8c6.2-39.1,10.4-73.7,13.5-103.2
		c13.5-9.2,25.8-18.1,36.4-26.1c16.6,19,33.5,35.5,50.5,49.9C936,223.6,940.3,253.4,945.8,279.5z"/>
</g>
</svg>
