<?xml version="1.0" encoding="utf-8"?>
<!-- Generator: Adobe Illustrator 19.0.0, SVG Export Plug-In . SVG Version: 6.00 Build 0)  -->
<svg version="1.1" id="Layer_2" xmlns="http://www.w3.org/2000/svg" xmlns:xlink="http://www.w3.org/1999/xlink" x="0px" y="0px"
	 viewBox="0 0 1516.1 625.6" style="enable-background:new 0 0 1516.1 625.6;" xml:space="preserve">
<style type="text/css">
	.st0{fill:#00ACFA;}
	.st1{fill:#8E8E8E;}
</style>
<g>
	<g>
		<path class="st0" d="M835,426.4h-49.3v-33c0-9.6-0.5-15.6-1.6-17.9c-1.1-2.4-3.4-3.6-7-3.6c-4.1,0-6.6,1.4-7.7,4.3
			c-1.1,2.9-1.6,9.1-1.6,18.8v88.1c0,9.2,0.5,15.2,1.6,18c1.1,2.8,3.6,4.2,7.4,4.2c3.7,0,6.1-1.4,7.2-4.2c1.1-2.8,1.7-9.4,1.7-19.9
			v-23.8H835v7.4c0,19.6-1.4,33.6-4.2,41.8c-2.8,8.2-8.9,15.4-18.4,21.6c-9.5,6.2-21.2,9.3-35.1,9.3c-14.5,0-26.4-2.6-35.7-7.9
			S726,517.2,723,507.9c-3-9.3-4.6-23.2-4.6-41.8v-55.4c0-13.7,0.5-23.9,1.4-30.8c0.9-6.8,3.7-13.4,8.4-19.7
			c4.6-6.3,11.1-11.3,19.3-14.9c8.2-3.6,17.7-5.4,28.4-5.4c14.5,0,26.5,2.8,36,8.4c9.5,5.6,15.7,12.6,18.6,21
			c3,8.4,4.5,21.4,4.5,39.1V426.4z"/>
	</g>
	<g>
		<path class="st0" d="M897.9,343.8v42.7c4.1-3.8,8.5-6.6,13.2-8.5c4.7-1.9,9.8-2.8,15.2-2.8c8.3,0,15.3,2.1,21.2,6.3
			c5.8,4.2,9.4,9.1,10.7,14.6c1.3,5.5,1.9,15.6,1.9,30.2v107.2h-47.3V424.1c0-9.1-0.5-14.9-1.3-17.5c-0.9-2.6-2.9-3.9-6-3.9
			c-2.9,0-4.8,1.3-5.9,4c-1,2.7-1.5,7.9-1.5,15.8v111h-47.3V343.8H897.9z"/>
	</g>
	<g>
		<path class="st0" d="M1017.9,438.2h-44.4v-10.4c0-12,1.4-21.3,4.2-27.8c2.8-6.5,8.3-12.3,16.7-17.3c8.4-5,19.2-7.5,32.6-7.5
			c16,0,28.1,2.8,36.2,8.5c8.1,5.7,13,12.6,14.6,20.9c1.6,8.2,2.5,25.2,2.5,50.9v78h-46.1v-13.9c-2.9,5.6-6.6,9.7-11.2,12.5
			c-4.6,2.8-10,4.2-16.3,4.2c-8.3,0-15.9-2.3-22.8-7c-6.9-4.6-10.4-14.8-10.4-30.5v-12.8c0-11.6,1.8-19.6,5.5-23.8
			c3.7-4.2,12.8-9.1,27.3-14.8c15.5-6.1,23.9-10.2,25-12.3c1.1-2.1,1.6-6.4,1.6-12.9c0-8.1-0.6-13.4-1.8-15.9
			c-1.2-2.5-3.2-3.7-6-3.7c-3.2,0-5.2,1-6,3.1c-0.8,2.1-1.2,7.4-1.2,16.1V438.2z M1032.9,459.6c-7.6,5.5-12,10.2-13.2,13.9
			c-1.2,3.8-1.8,9.1-1.8,16.2c0,8,0.5,13.2,1.6,15.6c1.1,2.3,3.1,3.5,6.3,3.5c3,0,4.9-0.9,5.8-2.8c0.9-1.8,1.3-6.7,1.3-14.5V459.6z"
			/>
	</g>
	<g>
		<path class="st0" d="M1144,378l-0.8,14.3c3.4-5.7,7.6-10,12.6-12.9c5-2.9,10.7-4.3,17.2-4.3c8.1,0,14.8,1.9,19.9,5.7
			c5.2,3.8,8.5,8.7,10,14.5c1.5,5.8,2.2,15.5,2.2,29.1v109h-47.3V425.8c0-10.7-0.4-17.2-1.1-19.6c-0.7-2.3-2.7-3.5-5.9-3.5
			c-3.4,0-5.5,1.3-6.3,4c-0.9,2.7-1.3,9.9-1.3,21.6v105.1h-47.3V378H1144z"/>
	</g>
	<g>
		<path class="st0" d="M1268.8,378l-0.8,14.3c3.4-5.7,7.6-10,12.6-12.9c5-2.9,10.7-4.3,17.2-4.3c8.1,0,14.8,1.9,19.9,5.7
			c5.2,3.8,8.5,8.7,10,14.5c1.5,5.8,2.2,15.5,2.2,29.1v109h-47.3V425.8c0-10.7-0.4-17.2-1.1-19.6c-0.7-2.3-2.7-3.5-5.9-3.5
			c-3.4,0-5.5,1.3-6.3,4c-0.9,2.7-1.3,9.9-1.3,21.6v105.1h-47.3V378H1268.8z"/>
	</g>
	<g>
		<path class="st0" d="M1452.6,458.5h-61.3v33.6c0,7,0.5,11.6,1.5,13.6c1,2,3,3,5.9,3c3.6,0,6-1.3,7.2-4c1.2-2.7,1.8-7.9,1.8-15.6
			v-20.5h44.9v11.5c0,9.6-0.6,17-1.8,22.1c-1.2,5.2-4,10.7-8.5,16.5c-4.5,5.9-10.1,10.3-16.9,13.2c-6.8,2.9-15.4,4.4-25.7,4.4
			c-10,0-18.8-1.4-26.5-4.3c-7.7-2.9-13.6-6.9-17.9-11.9c-4.3-5-7.2-10.6-8.8-16.6c-1.6-6.1-2.5-14.9-2.5-26.4v-45.4
			c0-13.6,1.8-24.3,5.5-32.2c3.7-7.9,9.7-13.9,18-18c8.4-4.2,18-6.3,28.8-6.3c13.3,0,24.2,2.5,32.9,7.6c8.6,5,14.7,11.7,18.2,20
			c3.5,8.3,5.2,20,5.2,35.1V458.5z M1405.2,433.2v-11.4c0-8-0.4-13.2-1.3-15.6c-0.9-2.3-2.6-3.5-5.3-3.5c-3.3,0-5.3,1-6.1,3
			c-0.8,2-1.2,7.4-1.2,16.1v11.4H1405.2z"/>
	</g>
	<g>
		<path class="st0" d="M1516.1,343.8v189.7h-48.8V343.8H1516.1z"/>
	</g>
</g>
<g>
	<g>
		<path class="st1" d="M949,240.5c-128.1-2.9-265-0.4-391.1,9.4V103.2c27.5,32.2,86,98.8,106.4,108.7c27,13.1,70.4,18,83.4-27
			c-20.5,31.9-51.5,36.8-99-6.1C601.3,135.8,547.3,47.4,547.3,47.4s0,0-11.5,0c-12.3,40.1-67.1,149.7-136.6,152.2
			C329.7,202.1,262.6,137.4,198,0c-9,64.6-86.7,286.3-198,355.9l4.1,4.9C89.8,327.9,144.5,222.5,189.3,131
			c-5.8,53.8-14,139.1-14.5,192.9C51.3,373.4,22.5,428.8,31.9,472c0,0,25.9-59.3,142.9-110.8v20.6h-10.2v24.6h10.2v79
			c0,15.5,0.4,25.3,1.3,29.5c0.9,4.2,3,7.9,6.6,11.1c3.5,3.2,7.6,5.3,12.2,6.2c4.6,0.9,12.3,1.3,23.1,1.3H237v-25.1
			c-7.7,0-12.1-0.6-13.2-1.8c-1.1-1.2-1.6-6.9-1.6-17.1v-83.2h12.8v-24.6h-12.8v-39.1c2.2-0.8,4.5-1.5,6.8-2.3
			c85.2-28.5,161.2-46.1,284-61.4l-2.6,109c-4-4.2-8.4-7.4-13.3-9.5c-4.9-2.1-10.3-3.2-16.1-3.2c-7.6,0-14.1,1.9-19.6,5.7
			c-5.5,3.8-9,8.2-10.5,13.2c-1.5,5-2.3,13.5-2.3,25.4v72.8c0,11.5,0.8,19.8,2.3,24.8c1.5,5.1,5,9.6,10.4,13.4
			c5.4,3.9,11.8,5.8,19.1,5.8c5.5,0,10.7-1.2,15.7-3.5c5-2.3,9.8-5.9,14.3-10.6v11.3h47.3V273.6C654.1,263,777.6,253,949,240.5z
			 M510.5,489.1c0,8.7-0.5,14.1-1.5,16.3c-1,2.2-3,3.3-6.1,3.3c-2.7,0-4.5-1-5.4-3s-1.4-6.2-1.4-12.5v-76.2c0-6.1,0.5-10,1.5-11.8
			c1-1.8,2.9-2.6,5.7-2.6c2.9,0,4.8,1,5.8,2.9c1,2,1.5,5.8,1.5,11.5V489.1z M221.5,307l-7.9-225.3c0.3-0.5,0.5-1,0.8-1.5
			C251.1,149.7,328,225,399.2,220.9c67.3-3.8,107.8-59.2,128-97.9c-3.1,35.3-8,87.6-12.9,130.7c-109.6,10.3-209,26.7-284.5,50.6
			C227,305.2,224.3,306.1,221.5,307z"/>
	</g>
	<g>
		<path class="st1" d="M290.2,398.5l1.9-20.4h-47.3v155.5h47.3v-61.4c0-15.1,0.5-24.7,1.4-28.9c0.9-4.2,3.4-7.4,7.5-9.8
			c4.1-2.3,10.4-3.5,19.1-3.5v-54.7C307.1,376.1,297.1,383.8,290.2,398.5z"/>
	</g>
	<g>
		<path class="st1" d="M417.5,383.7c-8.1-5.7-20.2-8.5-36.2-8.5c-13.4,0-24.2,2.5-32.6,7.5c-8.4,5-13.9,10.8-16.7,17.3
			c-2.8,6.5-4.2,15.8-4.2,27.8v10.4h44.4V422c0-8.7,0.4-14,1.2-16.1c0.8-2.1,2.8-3.1,6-3.1c2.8,0,4.8,1.2,6,3.7
			c1.2,2.5,1.8,7.8,1.8,15.9c0,6.5-0.5,10.8-1.6,12.9c-1.1,2.1-9.4,6.2-25,12.3c-14.5,5.6-23.6,10.5-27.3,14.8
			c-3.7,4.2-5.5,12.1-5.5,23.8v12.8c0,15.7,3.5,25.9,10.4,30.5c6.9,4.6,14.5,7,22.8,7c6.3,0,11.8-1.4,16.3-4.2
			c4.6-2.8,8.3-6.9,11.2-12.5v13.9h46.1v-78c0-25.7-0.8-42.7-2.5-50.9C430.5,396.3,425.6,389.4,417.5,383.7z M387.2,491.6
			c0,7.8-0.5,12.6-1.3,14.5c-0.9,1.8-2.8,2.8-5.8,2.8c-3.1,0-5.2-1.2-6.3-3.5c-1.1-2.3-1.6-7.5-1.6-15.6c0-7,0.6-12.4,1.8-16.2
			c1.2-3.8,5.6-8.4,13.2-13.9V491.6z"/>
	</g>
	<g>
		<path class="st1" d="M658,382.8c-8.6-5-19.6-7.6-32.9-7.6c-10.9,0-20.5,2.1-28.8,6.3c-8.4,4.2-14.4,10.2-18,18
			c-3.7,7.9-5.5,18.6-5.5,32.2V477c0,11.6,0.8,20.4,2.5,26.4c1.6,6.1,4.6,11.6,8.8,16.6c4.3,5,10.2,9,17.9,11.9
			c7.7,2.9,16.5,4.3,26.5,4.3c10.3,0,18.9-1.5,25.7-4.4c6.8-2.9,12.5-7.3,16.9-13.2c4.5-5.9,7.3-11.4,8.5-16.5
			c1.2-5.2,1.8-12.5,1.8-22.1v-11.5h-44.9v20.5c0,7.7-0.6,12.9-1.8,15.6c-1.2,2.7-3.6,4-7.2,4c-2.9,0-4.8-1-5.9-3
			c-1-2-1.5-6.6-1.5-13.6v-33.6h61.3v-20.6c0-15.1-1.7-26.8-5.2-35.1C672.7,394.5,666.6,387.8,658,382.8z M633.9,433.2h-13.8v-11.4
			c0-8.7,0.4-14.1,1.2-16.1c0.8-2,2.8-3,6.1-3c2.7,0,4.4,1.2,5.3,3.5c0.9,2.3,1.3,7.5,1.3,15.6V433.2z"/>
	</g>
</g>
<g>
	<path class="st0" d="M210.2,605.2l10.4,3.3c-1.6,5.8-4.2,10.1-7.9,12.9c-3.7,2.8-8.4,4.2-14.1,4.2c-7,0-12.8-2.4-17.3-7.2
		c-4.5-4.8-6.8-11.4-6.8-19.7c0-8.8,2.3-15.7,6.8-20.5c4.6-4.9,10.5-7.3,17.9-7.3c6.5,0,11.7,1.9,15.8,5.7c2.4,2.3,4.2,5.5,5.4,9.8
		l-10.6,2.5c-0.6-2.7-1.9-4.9-3.9-6.5c-2-1.6-4.4-2.4-7.2-2.4c-3.9,0-7.1,1.4-9.6,4.2c-2.4,2.8-3.7,7.4-3.7,13.7
		c0,6.7,1.2,11.5,3.6,14.3c2.4,2.8,5.5,4.3,9.4,4.3c2.8,0,5.3-0.9,7.3-2.7C207.8,611.9,209.3,609,210.2,605.2z"/>
</g>
<g>
	<path class="st0" d="M258.7,624.6v-52.9h10.7v20.8h20.9v-20.8H301v52.9h-10.7v-23.2h-20.9v23.2H258.7z"/>
</g>
<g>
	<path class="st0" d="M388.7,624.6h-11.6l-4.6-12h-21.2l-4.4,12h-11.3l20.6-52.9h11.3L388.7,624.6z M369,603.7l-7.3-19.6l-7.2,19.6
		H369z"/>
</g>
<g>
	<path class="st0" d="M423.4,624.6v-52.9h10.4l21.7,35.4v-35.4h9.9v52.9h-10.7l-21.3-34.5v34.5H423.4z"/>
</g>
<g>
	<path class="st0" d="M505.7,624.6v-52.9h10.4l21.7,35.4v-35.4h9.9v52.9H537l-21.3-34.5v34.5H505.7z"/>
</g>
<g>
	<path class="st0" d="M588,624.6v-52.9h39.3v9h-28.6v11.7h26.6v8.9h-26.6v14.4h29.6v8.9H588z"/>
</g>
<g>
	<path class="st0" d="M666.5,624.6v-52.5h10.7v43.6h26.6v8.9H666.5z"/>
</g>
<g>
	<path class="st0" d="M800.4,624.6v-44h-15.7v-9h42.1v9h-15.7v44H800.4z"/>
</g>
<g>
	<path class="st0" d="M859.1,598.5c0-5.4,0.8-9.9,2.4-13.6c1.2-2.7,2.8-5.1,4.9-7.3c2.1-2.1,4.4-3.7,6.8-4.8
		c3.3-1.4,7.1-2.1,11.4-2.1c7.8,0,14,2.4,18.7,7.3c4.7,4.8,7,11.6,7,20.2c0,8.5-2.3,15.2-7,20.1c-4.6,4.8-10.9,7.2-18.6,7.2
		c-7.9,0-14.1-2.4-18.8-7.2C861.4,613.5,859.1,606.9,859.1,598.5z M870.1,598.1c0,6,1.4,10.5,4.2,13.6c2.8,3.1,6.3,4.6,10.5,4.6
		c4.3,0,7.8-1.5,10.5-4.6c2.7-3.1,4.1-7.7,4.1-13.8c0-6.1-1.3-10.6-4-13.6c-2.7-3-6.2-4.5-10.6-4.5c-4.4,0-8,1.5-10.7,4.5
		C871.4,587.5,870.1,592,870.1,598.1z"/>
</g>
<g>
	<path class="st1" d="M994.4,607.4l10.4-1c0.6,3.5,1.9,6.1,3.8,7.7c1.9,1.6,4.5,2.5,7.7,2.5c3.4,0,6-0.7,7.8-2.2
		c1.7-1.5,2.6-3.2,2.6-5.1c0-1.3-0.4-2.3-1.1-3.2c-0.7-0.9-2-1.6-3.8-2.3c-1.3-0.4-4.1-1.2-8.6-2.3c-5.7-1.4-9.8-3.2-12.1-5.2
		c-3.3-2.9-4.9-6.5-4.9-10.7c0-2.7,0.8-5.2,2.3-7.6c1.5-2.3,3.7-4.1,6.6-5.4c2.9-1.2,6.4-1.8,10.4-1.8c6.6,0,11.6,1.5,15,4.4
		c3.4,2.9,5.1,6.8,5.3,11.7l-10.7,0.5c-0.5-2.7-1.4-4.7-2.9-5.9c-1.5-1.2-3.8-1.8-6.8-1.8c-3.1,0-5.5,0.6-7.3,1.9
		c-1.1,0.8-1.7,1.9-1.7,3.3c0,1.3,0.5,2.3,1.6,3.2c1.3,1.1,4.6,2.3,9.8,3.5c5.2,1.2,9,2.5,11.5,3.8c2.5,1.3,4.4,3.1,5.9,5.4
		c1.4,2.3,2.1,5.1,2.1,8.4c0,3-0.8,5.9-2.5,8.5c-1.7,2.6-4.1,4.6-7.2,5.9c-3.1,1.3-6.9,1.9-11.5,1.9c-6.7,0-11.8-1.5-15.4-4.6
		C997.3,617.8,995.1,613.3,994.4,607.4z"/>
</g>
<g>
	<path class="st1" d="M1075.3,571.7h10.7v28.7c0,4.6,0.1,7.5,0.4,8.8c0.5,2.2,1.5,3.9,3.3,5.2c1.7,1.3,4.1,2,7.1,2
		c3,0,5.3-0.6,6.9-1.9c1.5-1.2,2.5-2.8,2.8-4.6c0.3-1.8,0.5-4.8,0.5-9v-29.3h10.7v27.8c0,6.4-0.3,10.8-0.9,13.5
		c-0.6,2.6-1.6,4.8-3.2,6.6c-1.6,1.8-3.6,3.2-6.2,4.3c-2.6,1.1-6,1.6-10.2,1.6c-5.1,0-8.9-0.6-11.5-1.8c-2.6-1.2-4.7-2.7-6.2-4.6
		c-1.5-1.9-2.5-3.8-3-5.9c-0.7-3-1-7.5-1-13.4V571.7z"/>
</g>
<g>
	<path class="st1" d="M1191.6,605.2l10.4,3.3c-1.6,5.8-4.2,10.1-7.9,12.9c-3.7,2.8-8.4,4.2-14.1,4.2c-7,0-12.8-2.4-17.3-7.2
		c-4.5-4.8-6.8-11.4-6.8-19.7c0-8.8,2.3-15.7,6.8-20.5c4.6-4.9,10.5-7.3,17.9-7.3c6.5,0,11.7,1.9,15.8,5.7c2.4,2.3,4.2,5.5,5.4,9.8
		l-10.6,2.5c-0.6-2.7-1.9-4.9-3.9-6.5c-2-1.6-4.4-2.4-7.2-2.4c-3.9,0-7.1,1.4-9.6,4.2c-2.4,2.8-3.7,7.4-3.7,13.7
		c0,6.7,1.2,11.5,3.6,14.3c2.4,2.8,5.5,4.3,9.4,4.3c2.8,0,5.3-0.9,7.3-2.7C1189.3,611.9,1190.7,609,1191.6,605.2z"/>
</g>
<g>
	<path class="st1" d="M1274,605.2l10.4,3.3c-1.6,5.8-4.2,10.1-7.9,12.9c-3.7,2.8-8.4,4.2-14.1,4.2c-7,0-12.8-2.4-17.3-7.2
		c-4.5-4.8-6.8-11.4-6.8-19.7c0-8.8,2.3-15.7,6.8-20.5c4.6-4.9,10.5-7.3,17.9-7.3c6.5,0,11.7,1.9,15.8,5.7c2.4,2.3,4.2,5.5,5.4,9.8
		l-10.6,2.5c-0.6-2.7-1.9-4.9-3.9-6.5c-2-1.6-4.4-2.4-7.2-2.4c-3.9,0-7.1,1.4-9.6,4.2c-2.4,2.8-3.7,7.4-3.7,13.7
		c0,6.7,1.2,11.5,3.6,14.3c2.4,2.8,5.5,4.3,9.4,4.3c2.8,0,5.3-0.9,7.3-2.7C1271.6,611.9,1273.1,609,1274,605.2z"/>
</g>
<g>
	<path class="st1" d="M1322.4,624.6v-52.9h39.3v9h-28.6v11.7h26.6v8.9h-26.6v14.4h29.6v8.9H1322.4z"/>
</g>
<g>
	<path class="st1" d="M1398,607.4l10.4-1c0.6,3.5,1.9,6.1,3.8,7.7c1.9,1.6,4.5,2.5,7.7,2.5c3.4,0,6-0.7,7.8-2.2
		c1.7-1.5,2.6-3.2,2.6-5.1c0-1.3-0.4-2.3-1.1-3.2c-0.7-0.9-2-1.6-3.8-2.3c-1.3-0.4-4.1-1.2-8.6-2.3c-5.7-1.4-9.8-3.2-12.1-5.2
		c-3.3-2.9-4.9-6.5-4.9-10.7c0-2.7,0.8-5.2,2.3-7.6c1.5-2.3,3.7-4.1,6.6-5.4c2.9-1.2,6.4-1.8,10.4-1.8c6.6,0,11.6,1.5,15,4.4
		c3.4,2.9,5.1,6.8,5.3,11.7l-10.7,0.5c-0.5-2.7-1.4-4.7-2.9-5.9c-1.5-1.2-3.8-1.8-6.8-1.8c-3.1,0-5.5,0.6-7.3,1.9
		c-1.1,0.8-1.7,1.9-1.7,3.3c0,1.3,0.5,2.3,1.6,3.2c1.3,1.1,4.6,2.3,9.8,3.5c5.2,1.2,9,2.5,11.5,3.8c2.5,1.3,4.4,3.1,5.9,5.4
		c1.4,2.3,2.1,5.1,2.1,8.4c0,3-0.8,5.9-2.5,8.5c-1.7,2.6-4.1,4.6-7.2,5.9c-3.1,1.3-6.9,1.9-11.5,1.9c-6.7,0-11.8-1.5-15.4-4.6
		C1400.8,617.8,1398.7,613.3,1398,607.4z"/>
</g>
<g>
	<path class="st1" d="M1476.2,607.4l10.4-1c0.6,3.5,1.9,6.1,3.8,7.7c1.9,1.6,4.5,2.5,7.7,2.5c3.4,0,6-0.7,7.8-2.2
		c1.7-1.5,2.6-3.2,2.6-5.1c0-1.3-0.4-2.3-1.1-3.2c-0.7-0.9-2-1.6-3.8-2.3c-1.3-0.4-4.1-1.2-8.6-2.3c-5.7-1.4-9.8-3.2-12.1-5.2
		c-3.3-2.9-4.9-6.5-4.9-10.7c0-2.7,0.8-5.2,2.3-7.6c1.5-2.3,3.7-4.1,6.6-5.4c2.9-1.2,6.4-1.8,10.4-1.8c6.6,0,11.6,1.5,15,4.4
		c3.4,2.9,5.1,6.8,5.3,11.7l-10.7,0.5c-0.5-2.7-1.4-4.7-2.9-5.9c-1.5-1.2-3.8-1.8-6.8-1.8c-3.1,0-5.5,0.6-7.3,1.9
		c-1.1,0.8-1.7,1.9-1.7,3.3c0,1.3,0.5,2.3,1.6,3.2c1.3,1.1,4.6,2.3,9.8,3.5c5.2,1.2,9,2.5,11.5,3.8c2.5,1.3,4.4,3.1,5.9,5.4
		c1.4,2.3,2.1,5.1,2.1,8.4c0,3-0.8,5.9-2.5,8.5c-1.7,2.6-4.1,4.6-7.2,5.9c-3.1,1.3-6.9,1.9-11.5,1.9c-6.7,0-11.8-1.5-15.4-4.6
		C1479.1,617.8,1476.9,613.3,1476.2,607.4z"/>
</g>
</svg>
