<?xml version="1.0" encoding="utf-8"?>
<!-- Generator: Adobe Illustrator 19.0.0, SVG Export Plug-In . SVG Version: 6.00 Build 0)  -->
<svg version="1.1" id="Layer_3" xmlns="http://www.w3.org/2000/svg" xmlns:xlink="http://www.w3.org/1999/xlink" x="0px" y="0px"
	 viewBox="0 0 1300 564.5" style="enable-background:new 0 0 1300 564.5;" xml:space="preserve">
<style type="text/css">
	.st0{display:none;stroke:#000000;stroke-miterlimit:10;}
	.st1{fill:#D8821C;}
	.st2{fill:#848484;}
	.st3{fill:#223894;}
</style>
<rect x="-664.5" y="-325.8" class="st0" width="2358.1" height="1283.9"/>
<g>
	<g>
		<g>
			<path class="st1" d="M651.1,23.9h99.4l-3.9,18.3h-38.4L687,144.6h-21.1l21.3-102.4h-39.7L651.1,23.9z"/>
		</g>
		<g>
			<path class="st1" d="M769.3,23.9h52.2c10.3,0,38,1.5,38,30.8c0,19.1-10.3,29.6-27.4,32.8v0.3c10.1,3.9,12.8,11.7,12.8,21.8
				c0,8.3-2,16.7-1.9,25c0,3.4,0.3,6.8,2.2,10h-22.1c-1.2-3.2-1.4-5.9-1.4-9.3c0-9,2-17.6,2-26.4c0-14-11.3-14-22.6-14H776
				l-10.3,49.7h-21.5L769.3,23.9z M779.4,78.8h30.9c18.1,0,28.1-7.8,28.1-22c0-13.2-10.3-15.7-21.6-15.7h-29.6L779.4,78.8z"/>
		</g>
		<g>
			<path class="st1" d="M931.3,23.9h22.3l21,120.7h-21.5l-4.9-31.9h-48l-18.6,31.9H859L931.3,23.9z M938.6,45.2h-0.3l-29.1,51.4H946
				L938.6,45.2z"/>
		</g>
		<g>
			<path class="st1" d="M1016.5,23.9h44.3c30.9,0,47.3,16.9,47.3,50.5c0,14.2-6.1,37.4-19.1,49.9c-14.4,13.9-25.4,20.3-55.4,20.3
				h-42.4L1016.5,23.9z M1016,127.3h26.4c36.3,0,44.6-40.9,44.6-53.1c0-21.1-9.6-33.1-26.5-33.1h-26.4L1016,127.3z"/>
		</g>
		<g>
			<path class="st1" d="M1144.3,23.9h87.9l-3.7,18.3h-67.1l-6.6,31.6h62.2l-3.5,17.2H1151l-7.3,35.3h67.6l-3.7,18.3h-88.4
				L1144.3,23.9z"/>
		</g>
	</g>
	<g>
		<g>
			<path class="st2" d="M440.3,419.8c0-7.3-4.2-11.2-11.8-11.2c-12.4,0-18.6,12.4-18.6,24.1c0,9.7,5.2,15.6,14.3,15.6
				c9.4,0,12.5-8.4,13.5-12h9.1c-2.9,13.2-12.1,19.4-23,19.4c-14.9,0-23.2-9.9-23.2-22.8c0-21.9,14.3-31.9,28-31.9
				c12.4,0,21,6.7,20.6,18.6H440.3z"/>
		</g>
		<g>
			<path class="st2" d="M461.7,402.4h9.1l-4.3,20.8H491l4.3-20.8h9.1l-10.8,52.2h-9.1l4.9-23.5h-24.4l-4.9,23.5h-9.1L461.7,402.4z"
				/>
		</g>
		<g>
			<path class="st2" d="M531,402.4h9.7l9.1,52.2h-9.3l-2.1-13.8h-20.8l-8,13.8h-9.8L531,402.4z M534.2,411.6H534l-12.6,22.2h15.9
				L534.2,411.6z"/>
		</g>
		<g>
			<path class="st2" d="M565.1,402.4h10l16,39h0.1l8-39h9.1l-10.8,52.2h-10l-16.1-38.7h-0.1l-7.9,38.7h-9.1L565.1,402.4z"/>
		</g>
		<g>
			<path class="st2" d="M617.9,402.4h10l16,39h0.1l8-39h9.1l-10.8,52.2h-10l-16.1-38.7h-0.1l-7.9,38.7H607L617.9,402.4z"/>
		</g>
		<g>
			<path class="st2" d="M670.6,402.4h38l-1.6,7.9h-29l-2.9,13.7h26.9l-1.5,7.5h-27l-3.1,15.3h29.2l-1.6,7.9h-38.2L670.6,402.4z"/>
		</g>
		<g>
			<path class="st2" d="M716.9,402.4h9.1l-9.2,44.3h26.3l-1.6,7.9h-35.5L716.9,402.4z"/>
		</g>
		<g>
			<path class="st2" d="M773.9,402.4h43l-1.7,7.9h-16.6l-9.2,44.3h-9.1l9.2-44.3h-17.2L773.9,402.4z"/>
		</g>
		<g>
			<path class="st2" d="M841.7,401.2c13.7,0,22.8,9.4,22.8,22.8c0,21.9-13.6,31.9-27.6,31.9c-14.9,0-23.2-9.9-23.2-22.8
				C813.7,411.1,828,401.2,841.7,401.2z M837.2,448.4c12.1,0,18.2-12.4,18.2-24.1c0-9.7-4.8-15.6-14-15.6
				c-12.4,0-18.6,12.4-18.6,24.1C822.8,442.5,828,448.4,837.2,448.4z"/>
		</g>
		<g>
			<path class="st2" d="M897,437.4c-0.4,8.1,4.4,11,12,11c5,0,11.6-2.2,11.6-8.3c0-5.8-6.1-7.4-12.5-9.1
				c-4.6-1.2-14.3-3.7-14.3-13.5c0-9.4,7.2-16.2,19.4-16.2c10.9,0,19.7,4.4,19.3,16.7h-8.8c-0.1-6.5-3.6-9.2-10.7-9.2
				c-2.5,0-10.2,0.7-10.2,7.7c0,5,5,6.4,10.9,7.8c7.4,2,15.9,3.9,15.9,14.8c0,8.1-5.9,16.9-21.7,16.9c-12.3,0-20.2-5.4-19.8-18.5
				H897z"/>
		</g>
		<g>
			<path class="st2" d="M945.6,402.4h9.1l-6.7,31.9c-0.3,1.4-0.5,2.8-0.6,4.2c-0.2,7,4.8,9.4,11.2,9.4c6.9,0,12-2.6,14.3-13.4
				l6.9-32.2h9.1l-6.9,32.8c-1.8,8.6-5.6,20.7-24.5,20.7c-10.3,0-19.3-5.2-19.3-16.1c0-2.4,0.4-4.7,0.9-7L945.6,402.4z"/>
		</g>
		<g>
			<path class="st2" d="M1030.5,419.8c0-7.3-4.2-11.2-11.8-11.2c-12.4,0-18.6,12.4-18.6,24.1c0,9.7,5.2,15.6,14.3,15.6
				c9.4,0,12.5-8.4,13.5-12h9.1c-2.9,13.2-12.1,19.4-23,19.4c-14.9,0-23.2-9.9-23.2-22.8c0-21.9,14.3-31.9,28-31.9
				c12.4,0,21,6.7,20.6,18.6H1030.5z"/>
		</g>
		<g>
			<path class="st2" d="M1083.3,419.8c0-7.3-4.2-11.2-11.8-11.2c-12.4,0-18.6,12.4-18.6,24.1c0,9.7,5.2,15.6,14.3,15.6
				c9.4,0,12.5-8.4,13.5-12h9.1c-2.9,13.2-12.1,19.4-23,19.4c-14.9,0-23.2-9.9-23.2-22.8c0-21.9,14.3-31.9,28-31.9
				c12.4,0,21,6.7,20.6,18.6H1083.3z"/>
		</g>
		<g>
			<path class="st2" d="M1105.2,402.4h38l-1.6,7.9h-29l-2.9,13.7h26.9l-1.5,7.5h-27l-3.1,15.3h29.2l-1.6,7.9h-38.2L1105.2,402.4z"/>
		</g>
		<g>
			<path class="st2" d="M1150.1,437.4c-0.4,8.1,4.4,11,12,11c5,0,11.6-2.2,11.6-8.3c0-5.8-6.1-7.4-12.5-9.1
				c-4.6-1.2-14.3-3.7-14.3-13.5c0-9.4,7.2-16.2,19.4-16.2c10.9,0,19.7,4.4,19.3,16.7h-8.8c-0.1-6.5-3.6-9.2-10.7-9.2
				c-2.5,0-10.2,0.7-10.2,7.7c0,5,5,6.4,10.9,7.8c7.4,2,15.9,3.9,15.9,14.8c0,8.1-5.9,16.9-21.7,16.9c-12.3,0-20.2-5.4-19.8-18.5
				H1150.1z"/>
		</g>
		<g>
			<path class="st2" d="M1197.5,437.4c-0.4,8.1,4.4,11,12,11c5,0,11.6-2.2,11.6-8.3c0-5.8-6.1-7.4-12.5-9.1
				c-4.6-1.2-14.3-3.7-14.3-13.5c0-9.4,7.2-16.2,19.4-16.2c10.9,0,19.7,4.4,19.3,16.7h-8.8c-0.1-6.5-3.6-9.2-10.7-9.2
				c-2.5,0-10.2,0.7-10.2,7.7c0,5,5,6.4,10.9,7.8c7.4,2,15.9,3.9,15.9,14.8c0,8.1-5.9,16.9-21.7,16.9c-12.3,0-20.2-5.4-19.8-18.5
				H1197.5z"/>
		</g>
	</g>
	<g>
		<g>
			<path class="st3" d="M152.7,241.5c0-23.7-14-35.8-34.4-35.8c-43.3,0-62.9,43.8-62.9,80.7c0,26.4,12.9,49.5,43.6,49.5
				c23.1,0,41.4-17.8,45.2-38.2h42.2c-17.2,53.5-46.3,73.7-88,73.7c-54.1,0-85.3-30.4-85.3-85c0-62.1,40.1-116.2,104.9-116.2
				c44.7,0,77.7,24.7,76.9,71.3H152.7z"/>
		</g>
	</g>
	<g>
		<g>
			<path class="st3" d="M520.1,174.8h40.6l30,192.1h-39.3l-5.8-42.8h-67.3l-22.7,42.8h-41.8L520.1,174.8z M493.9,292.6H542
				l-8.8-76.4h-0.5L493.9,292.6z"/>
		</g>
		<g>
			<path class="st3" d="M643.1,174.8h40.8l48.9,136.7h0.5L759,174.8h36.3l-38.1,192.1h-39.6l-49.4-134.8h-0.5l-25.7,134.8h-37
				L643.1,174.8z"/>
		</g>
		<g>
			<path class="st3" d="M830.1,174.8h40.8l48.9,136.7h0.5L946,174.8h36.3l-38.1,192.1h-39.6l-49.4-134.8h-0.5l-25.7,134.8h-37
				L830.1,174.8z"/>
		</g>
		<g>
			<path class="st3" d="M1016.8,174.8h137.3l-6.8,35.5h-97.8l-8.1,41.2h90.5l-6.6,32.8h-90.5l-9.3,47.1h99.3l-7.1,35.5H979
				L1016.8,174.8z"/>
		</g>
		<g>
			<path class="st3" d="M1185.1,174.8h39.8l-30.7,156.6h86.9l-7.1,35.5h-126.8L1185.1,174.8z"/>
		</g>
	</g>
	<g>
		<g>
			<path class="st1" d="M447.6,160.7H324.1c19.6-31.4,40.2-61.5,61.6-89.7c-74.8,50.8-148.9,159-249.1,375.4
				C102.5,416.9,31,392.9,31,392.9l-7.3,10.7c0,0,71.5,32.7,126.9,129.6c16.4-48.9,35.6-99,57.1-148.7h128.9
				C293,501.4,294,543.8,294,543.8v5h15c0,0,51-140,105-269S517,71,517,71S486,103.4,447.6,160.7z M342,370.2H214
				c12.5-28.2,25.7-56.3,39.7-83.9h123.3c-4.2,9.1-8.3,18.4-12.4,28C356.1,334.4,348.6,353,342,370.2z M387.5,264.3H264.9
				c16.3-31.1,33.5-61.6,51.4-91h123C422.5,199.4,404.6,229.9,387.5,264.3z"/>
		</g>
	</g>
</g>
</svg>
